<svg width="48" height="48" viewBox="0 0 48 48" fill="none" xmlns="http://www.w3.org/2000/svg">
<path d="M33 26.5C32.1716 26.5 31.5 27.1716 31.5 28C31.5 28.8284 32.1716 29.5 33 29.5C33.8284 29.5 34.5 28.8284 34.5 28C34.5 27.1716 33.8284 26.5 33 26.5Z" fill="black"/>
<path d="M33 32.5C32.1716 32.5 31.5 33.1716 31.5 34C31.5 34.8284 32.1716 35.5 33 35.5C33.8284 35.5 34.5 34.8284 34.5 34C34.5 33.1716 33.8284 32.5 33 32.5Z" fill="black"/>
<path d="M37.5 31C37.5 30.1716 36.8284 29.5 36 29.5C35.1716 29.5 34.5 30.1716 34.5 31C34.5 31.8284 35.1716 32.5 36 32.5C36.8284 32.5 37.5 31.8284 37.5 31Z" fill="black"/>
<path d="M16 28C16 27.4477 15.5523 27 15 27C14.4477 27 14 27.4477 14 28V30H12C11.4477 30 11 30.4477 11 31C11 31.5523 11.4477 32 12 32H14V34C14 34.5523 14.4477 35 15 35C15.5523 35 16 34.5523 16 34V32H18C18.5523 32 19 31.5523 19 31C19 30.4477 18.5523 30 18 30H16V28Z" fill="black"/>
<path d="M21 28H22C22.5523 28 23 27.5523 23 27C23 26.4477 22.5523 26 22 26H21C20.4477 26 20 26.4477 20 27C20 27.5523 20.4477 28 21 28Z" fill="black"/>
<path d="M27 28H26C25.4477 28 25 27.5523 25 27C25 26.4477 25.4477 26 26 26H27C27.5523 26 28 26.4477 28 27C28 27.5523 27.5523 28 27 28Z" fill="black"/>
<path d="M31.5 31C31.5 30.1716 30.8284 29.5 30 29.5C29.1716 29.5 28.5 30.1716 28.5 31C28.5 31.8284 29.1716 32.5 30 32.5C30.8284 32.5 31.5 31.8284 31.5 31Z" fill="black"/>
<path fill-rule="evenodd" clip-rule="evenodd" d="M32 8C32.5523 8 33 8.44772 33 9V15C33 16.6569 31.6569 18 30 18C28.3431 18 27 16.6569 27 15V14C27 13.4477 26.5523 13 26 13C25.4477 13 25 13.4477 25 14V18.1707C26.1652 18.5825 27 19.6938 27 21V22H33C37.9706 22 42 26.0294 42 31C42 35.9706 37.9706 40 33 40C29.4648 40 26.4078 37.9621 24.9358 35H23.0642C21.5922 37.9621 18.5352 40 15 40C10.0294 40 6 35.9706 6 31C6 26.0294 10.0294 22 15 22H21V21C21 19.6938 21.8348 18.5825 23 18.1707V14C23 12.3431 24.3431 11 26 11C27.6569 11 29 12.3431 29 14V15C29 15.5523 29.4477 16 30 16C30.5523 16 31 15.5523 31 15V9C31 8.44772 31.4477 8 32 8ZM23 22H25V21C25 20.4477 24.5523 20 24 20C23.4477 20 23 20.4477 23 21V22ZM15 24C11.134 24 8 27.134 8 31C8 34.866 11.134 38 15 38C17.9361 38 20.4524 36.192 21.4915 33.6248C21.6444 33.2471 22.0111 33 22.4185 33H25.5815C25.9889 33 26.3556 33.2471 26.5085 33.6248C27.5476 36.192 30.0639 38 33 38C36.866 38 40 34.866 40 31C40 27.134 36.866 24 33 24H15Z" fill="black"/>
</svg>
