<svg width="48" height="48" viewBox="0 0 48 48" fill="none" xmlns="http://www.w3.org/2000/svg">
<path d="M18.8801 13.5338C20.8789 11.5348 24.1198 11.5346 26.1187 13.5334L31.0428 18.4571C31.6188 19.0331 31.6188 19.9669 31.0429 20.5429C30.4669 21.1188 29.5331 21.1188 28.9571 20.5429L24.2071 15.7929C23.8166 15.4023 23.1834 15.4023 22.7929 15.7929C22.4024 16.1834 22.4024 16.8165 22.7929 17.2071L27.5429 21.9571C28.8999 23.3141 31.1001 23.3141 32.4571 21.9571C33.8141 20.6001 33.8141 18.3999 32.457 17.0429L31.414 16H43C43.5523 16 44 15.5523 44 15C44 14.4477 43.5523 14 43 14H29.4139L27.5329 12.1192C24.7528 9.3393 20.2456 9.33954 17.4658 12.1197L15.5857 14H5C4.44772 14 4 14.4477 4 15C4 15.5523 4.44772 16 5 16H16C16.2652 16 16.5196 15.8946 16.7072 15.7071L18.8801 13.5338Z" fill="black"/>
<path d="M5 26C4.44772 26 4 26.4477 4 27C4 27.5523 4.44772 28 5 28H9C9.55228 28 10 27.5523 10 27C10 26.4477 9.55228 26 9 26H5Z" fill="black"/>
<path d="M37 25.9999C36.7314 25.9999 36.4741 26.108 36.286 26.2998L31.4485 31.2333C31.4456 31.2362 31.4427 31.2392 31.4399 31.2421L25.9562 36.7258C25.5289 37.1531 24.8362 37.1531 24.409 36.7258C23.9837 36.3005 23.9818 35.612 24.4034 35.1843C24.4053 35.1824 24.4071 35.1806 24.409 35.1787L29.9616 29.6261C29.9634 29.6243 29.9652 29.6225 29.967 29.6207L30.3317 29.256C30.7222 28.8655 30.7222 28.2323 30.3317 27.8418C29.9412 27.4512 29.308 27.4512 28.9175 27.8418L22.9948 33.7645C22.9916 33.7676 22.9885 33.7708 22.9854 33.774L22.0077 34.7516C21.5805 35.1788 20.8878 35.1788 20.4606 34.7516C20.0384 34.3293 20.0334 33.6479 20.4458 33.2196L26.63 27.0353L26.6441 27.0209L27.0003 26.6648C27.3908 26.2743 27.3908 25.6411 27.0003 25.2506C26.6097 24.86 25.9766 24.86 25.586 25.2506L19.0464 31.7902L19.0213 31.8156L18.0592 32.7777C17.632 33.2049 16.9393 33.2049 16.512 32.7777C16.0848 32.3505 16.0848 31.6578 16.512 31.2306L23.6687 24.074L23.6824 24.0599L24.0388 23.7035C24.4293 23.313 24.4293 22.6798 24.0388 22.2893C23.6483 21.8988 23.0151 21.8988 22.6246 22.2893L16.085 28.829C15.6577 29.2562 14.965 29.2562 14.5378 28.829C14.1106 28.4017 14.1106 27.7091 14.5378 27.2818L21.0775 20.7422C21.468 20.3516 21.468 19.7185 21.0775 19.328C20.6869 18.9374 20.0538 18.9374 19.6633 19.328L13.1236 25.8676C11.9153 27.0759 11.9153 29.0349 13.1236 30.2432C13.4822 30.6018 13.9069 30.8539 14.3585 30.9997C13.988 32.0819 14.2345 33.3285 15.0978 34.1919C15.9612 35.0553 17.2078 35.3017 18.29 34.9313C18.4358 35.3827 18.6879 35.8073 19.0464 36.1658C19.9097 37.0291 21.1562 37.2756 22.2383 36.9053C22.3841 37.3568 22.6362 37.7815 22.9948 38.14C24.2031 39.3483 26.1621 39.3483 27.3704 38.14L37.5105 27.9999H43C43.5523 27.9999 44 27.5522 44 26.9999C44 26.4476 43.5523 25.9999 43 25.9999H37Z" fill="black"/>
</svg>
