<svg width="48" height="48" viewBox="0 0 48 48" fill="none" xmlns="http://www.w3.org/2000/svg">
<path fill-rule="evenodd" clip-rule="evenodd" d="M20.9418 8.14395C18.8809 10.2049 18.612 13.4537 20.3061 15.8254C20.9807 16.7699 21.7776 17.6208 22.676 18.3558L28.8668 23.421C29.2351 23.7224 29.7649 23.7224 30.1332 23.421L36.324 18.3558C37.2224 17.6208 38.0193 16.7699 38.6939 15.8254C40.388 13.4537 40.1191 10.2049 38.0582 8.14395L37.9282 8.01396C35.616 5.70178 31.9274 5.60504 29.5 7.72373C27.0726 5.60504 23.384 5.70178 21.0718 8.01396L20.9418 8.14395ZM21.9335 14.6629C20.8077 13.0868 20.9864 10.9278 22.356 9.55816L22.486 9.42818C24.1181 7.79608 26.7643 7.79608 28.3964 9.42818L28.7929 9.82471C29.1834 10.2152 29.8166 10.2152 30.2071 9.82471L30.6036 9.42818C32.2357 7.79608 34.8819 7.79608 36.514 9.42818L36.644 9.55816C38.0136 10.9278 38.1923 13.0868 37.0665 14.6629C36.4946 15.4635 35.8191 16.1848 35.0576 16.8079L29.5 21.355L23.9424 16.8079C23.1809 16.1848 22.5054 15.4635 21.9335 14.6629Z" fill="black"/>
<path fill-rule="evenodd" clip-rule="evenodd" d="M4 23.9896C4 23.4374 4.44772 22.9896 5 22.9896H14.1972C15.5702 22.9896 16.9124 23.396 18.0547 24.1576C18.8685 24.7001 19.8247 24.9896 20.8028 24.9896H25.5C27.433 24.9896 29 26.5567 29 28.4896C29 30.4226 27.433 31.9896 25.5 31.9896H20C19.4477 31.9896 19 31.5419 19 30.9896C19 30.4374 19.4477 29.9896 20 29.9896H25.5C26.3284 29.9896 27 29.3181 27 28.4896C27 27.6612 26.3284 26.9896 25.5 26.9896H20.8028C19.4299 26.9896 18.0876 26.5833 16.9453 25.8217C16.1315 25.2792 15.1753 24.9896 14.1972 24.9896H11V33.9895H14C14.1552 33.9895 14.3084 34.0256 14.4472 34.095L20.6626 37.2027C22.7571 38.25 25.2251 38.2374 27.3088 37.1688L41.243 30.0231C41.8174 29.7285 42.0798 29.0502 41.8531 28.4458C41.6084 27.7932 40.8837 27.4594 40.2287 27.6976L32.7211 30.4277L32.3506 30.5664C31.8333 30.76 31.2571 30.4977 31.0635 29.9804C30.8698 29.4632 31.1322 28.8869 31.6494 28.6933L32.0332 28.5496L39.5452 25.8181C41.231 25.205 43.096 26.064 43.7258 27.7436C44.3091 29.299 43.6338 31.0447 42.1557 31.8027L28.2214 38.9485C25.5712 40.3076 22.4321 40.3236 19.7682 38.9916L13.7639 35.9895H11V36.9896C11 37.5419 10.5523 37.9896 10 37.9896H5C4.44772 37.9896 4 37.5419 4 36.9896V23.9896ZM9 24.9896V35.9896H6V24.9896H9Z" fill="black"/>
</svg>
