<svg width="48" height="48" viewBox="0 0 48 48" fill="none" xmlns="http://www.w3.org/2000/svg">
<path d="M30.364 17.6361C30.7545 18.0266 30.7545 18.6598 30.364 19.0503L19.0503 30.364C18.6597 30.7545 18.0266 30.7545 17.636 30.364C17.2455 29.9735 17.2455 29.3403 17.636 28.9498L28.9498 17.6361C29.3403 17.2455 29.9734 17.2455 30.364 17.6361Z" fill="black"/>
<path fill-rule="evenodd" clip-rule="evenodd" d="M21.8786 17.636C20.7071 16.4644 18.8076 16.4644 17.636 17.636C16.4644 18.8075 16.4644 20.707 17.636 21.8786C18.8076 23.0502 20.7071 23.0502 21.8786 21.8786C23.0502 20.707 23.0502 18.8075 21.8786 17.636ZM19.0502 19.0502C19.4407 18.6597 20.0739 18.6597 20.4644 19.0502C20.855 19.4407 20.855 20.0739 20.4644 20.4644C20.0739 20.8549 19.4407 20.8549 19.0502 20.4644C18.6597 20.0739 18.6597 19.4407 19.0502 19.0502Z" fill="black"/>
<path fill-rule="evenodd" clip-rule="evenodd" d="M30.364 26.1213C29.1924 24.9497 27.2929 24.9497 26.1214 26.1213C24.9498 27.2929 24.9498 29.1924 26.1214 30.364C27.2929 31.5355 29.1924 31.5355 30.364 30.364C31.5356 29.1924 31.5356 27.2929 30.364 26.1213ZM27.5356 27.5355C27.9261 27.145 28.5593 27.145 28.9498 27.5355C29.3403 27.9261 29.3403 28.5592 28.9498 28.9497C28.5593 29.3403 27.9261 29.3403 27.5356 28.9497C27.145 28.5592 27.145 27.9261 27.5356 27.5355Z" fill="black"/>
<path fill-rule="evenodd" clip-rule="evenodd" d="M10 24C10 16.268 16.268 10 24 10C31.732 10 38 16.268 38 24C38 31.732 31.732 38 24 38C16.268 38 10 31.732 10 24ZM24 12C17.3726 12 12 17.3726 12 24C12 30.6274 17.3726 36 24 36C30.6274 36 36 30.6274 36 24C36 17.3726 30.6274 12 24 12Z" fill="black"/>
<path fill-rule="evenodd" clip-rule="evenodd" d="M20.0775 6.06715C22.3303 4.12084 25.6696 4.12085 27.9225 6.06715L28.1354 6.2511C28.9501 6.95493 30.0141 7.30064 31.0868 7.21008L31.3672 7.18642C34.3338 6.93601 37.0354 8.8988 37.7139 11.7976L37.7781 12.0716C38.0235 13.1198 38.681 14.0249 39.6022 14.5822L39.8429 14.7279C42.3901 16.269 43.422 19.4449 42.2671 22.1889L42.158 22.4482C41.7404 23.4405 41.7404 24.5593 42.158 25.5515L42.2671 25.8109C43.422 28.5549 42.3901 31.7308 39.8429 33.2719L39.6022 33.4176C38.681 33.9749 38.0235 34.88 37.7781 35.9282L37.7139 36.2022C37.0354 39.101 34.3338 41.0638 31.3672 40.8134L31.0868 40.7897C30.0141 40.6991 28.9501 41.0448 28.1354 41.7487L27.9225 41.9326C25.6696 43.8789 22.3303 43.8789 20.0775 41.9326L19.8646 41.7487C19.0499 41.0448 17.9859 40.6991 16.9131 40.7897L16.6328 40.8134C13.6662 41.0638 10.9646 39.101 10.286 36.2022L10.2219 35.9282C9.97651 34.88 9.31893 33.9749 8.39781 33.4176L8.15706 33.2719C5.60984 31.7308 4.57795 28.5549 5.73283 25.8109L5.84198 25.5515C6.2596 24.5593 6.2596 23.4405 5.84198 22.4482L5.73283 22.1889C4.57794 19.4449 5.60985 16.269 8.15706 14.7279L8.39781 14.5822C9.31893 14.0249 9.97651 13.1198 10.2219 12.0716L10.286 11.7976C10.9646 8.8988 13.6662 6.93601 16.6328 7.18642L16.9131 7.21008C17.9859 7.30064 19.0499 6.95493 19.8646 6.2511L20.0775 6.06715ZM26.615 7.58058C25.1131 6.28304 22.8869 6.28304 21.385 7.58057L21.1721 7.76453C19.9501 8.82026 18.3541 9.33883 16.7449 9.203L16.4645 9.17933C14.4868 9.01239 12.6858 10.3209 12.2334 12.2534L12.1692 12.5274C11.8012 14.0998 10.8148 15.4574 9.43312 16.2934L9.19237 16.439C7.49423 17.4665 6.80629 19.5837 7.57622 21.413L7.68537 21.6724C8.31181 23.1608 8.31181 24.8389 7.68537 26.3274L7.57622 26.5867C6.8063 28.4161 7.49423 30.5333 9.19237 31.5607L9.43312 31.7064C10.8148 32.5424 11.8012 33.9 12.1692 35.4724L12.2334 35.7463C12.6858 37.6789 14.4868 38.9874 16.4645 38.8204L16.7449 38.7968C18.3541 38.6609 19.9501 39.1795 21.1721 40.2352L21.385 40.4192C22.8869 41.7167 25.1131 41.7167 26.615 40.4192L26.8279 40.2352C28.0499 39.1795 29.6459 38.6609 31.2551 38.7968L31.5354 38.8204C33.5132 38.9874 35.3142 37.6789 35.7666 35.7463L35.8307 35.4724C36.1988 33.9 37.1852 32.5424 38.5669 31.7064L38.8076 31.5607C40.5057 30.5333 41.1937 28.4161 40.4238 26.5867L40.3146 26.3274C39.6882 24.8389 39.6882 23.1608 40.3146 21.6724L40.4238 21.413C41.1937 19.5837 40.5057 17.4665 38.8076 16.439L38.5669 16.2934C37.1852 15.4574 36.1988 14.0998 35.8307 12.5274L35.7666 12.2534C35.3142 10.3209 33.5132 9.01239 31.5354 9.17933L31.2551 9.203C29.6459 9.33882 28.0499 8.82026 26.8279 7.76453L26.615 7.58058Z" fill="black"/>
</svg>
