<svg width="48" height="48" viewBox="0 0 48 48" fill="none" xmlns="http://www.w3.org/2000/svg">
<path fill-rule="evenodd" clip-rule="evenodd" d="M15 10C15 11.1256 15.3719 12.1643 15.9996 13C14.3429 12.9998 13 11.6567 13 10C13 9.44772 12.5523 9 12 9C11.4477 9 11 9.44772 11 10C11 11.1256 11.3719 12.1643 11.9996 13H11C9.34315 13 8 14.3431 8 16V21C8 21.5523 8.44772 22 9 22H10V39C10 40.6569 11.3431 42 13 42H35C36.6569 42 38 40.6569 38 39V22H39C39.5523 22 40 21.5523 40 21V16C40 14.3431 38.6569 13 37 13H34.0004C34.6281 12.1643 35 11.1256 35 10C35 9.44772 34.5523 9 34 9C33.4477 9 33 9.44772 33 10C33 11.4909 31.9124 12.7278 30.4874 12.9606C30.8138 12.3813 31 11.7124 31 11C31 8.79086 29.2091 7 27 7C26.0635 7 25.2022 7.32182 24.5206 7.8609C23.7189 6.16963 21.996 5 20 5C17.2386 5 15 7.23858 15 10ZM25 11V13H27C28.1046 13 29 12.1046 29 11C29 9.89543 28.1046 9 27 9C25.8954 9 25 9.89543 25 11ZM23 10C23 8.34315 21.6569 7 20 7C18.3431 7 17 8.34315 17 10C17 11.6569 18.3431 13 20 13H23V10ZM27 15H21V20H27V15ZM19 15V20H10V16C10 15.4477 10.4477 15 11 15H19ZM29 15V20H38V16C38 15.4477 37.5523 15 37 15H29ZM25 40V22H23V40H25ZM21 22V40H13C12.4477 40 12 39.5523 12 39V22H21ZM27 22V40H35C35.5523 40 36 39.5523 36 39V22H27Z" fill="black"/>
</svg>
