<svg width="48" height="48" viewBox="0 0 48 48" fill="none" xmlns="http://www.w3.org/2000/svg">
<path d="M15 13C15 14.1046 14.1046 15 13 15C11.8954 15 11 14.1046 11 13C11 11.8954 11.8954 11 13 11C14.1046 11 15 11.8954 15 13Z" fill="black"/>
<path d="M13 27C14.1046 27 15 26.1046 15 25C15 23.8954 14.1046 23 13 23C11.8954 23 11 23.8954 11 25C11 26.1046 11.8954 27 13 27Z" fill="black"/>
<path d="M25 15C26.1046 15 27 14.1046 27 13C27 11.8954 26.1046 11 25 11C23.8954 11 23 11.8954 23 13C23 14.1046 23.8954 15 25 15Z" fill="black"/>
<path d="M29 31C30.1046 31 31 30.1046 31 29C31 27.8954 30.1046 27 29 27C27.8954 27 27 27.8954 27 29C27 30.1046 27.8954 31 29 31Z" fill="black"/>
<path d="M25 23C25 24.1046 24.1046 25 23 25C21.8954 25 21 24.1046 21 23C21 21.8954 21.8954 21 23 21C24.1046 21 25 21.8954 25 23Z" fill="black"/>
<path d="M23 37C24.1046 37 25 36.1046 25 35C25 33.8954 24.1046 33 23 33C21.8954 33 21 33.8954 21 35C21 36.1046 21.8954 37 23 37Z" fill="black"/>
<path d="M37 23C37 24.1046 36.1046 25 35 25C33.8954 25 33 24.1046 33 23C33 21.8954 33.8954 21 35 21C36.1046 21 37 21.8954 37 23Z" fill="black"/>
<path d="M35 37C36.1046 37 37 36.1046 37 35C37 33.8954 36.1046 33 35 33C33.8954 33 33 33.8954 33 35C33 36.1046 33.8954 37 35 37Z" fill="black"/>
<path fill-rule="evenodd" clip-rule="evenodd" d="M6 11C6 8.23858 8.23858 6 11 6H27C29.7614 6 32 8.23858 32 11V16H37C39.7614 16 42 18.2386 42 21V37C42 39.7614 39.7614 42 37 42H21C18.2386 42 16 39.7614 16 37V32H11C8.23858 32 6 29.7614 6 27V11ZM30 11V16H21C18.2386 16 16 18.2386 16 21V30H11C9.34315 30 8 28.6569 8 27V11C8 9.34315 9.34315 8 11 8H27C28.6569 8 30 9.34315 30 11ZM21 18C19.3431 18 18 19.3431 18 21V37C18 38.6569 19.3431 40 21 40H37C38.6569 40 40 38.6569 40 37V21C40 19.3431 38.6569 18 37 18H21Z" fill="black"/>
</svg>
