<svg width="48" height="48" viewBox="0 0 48 48" fill="none" xmlns="http://www.w3.org/2000/svg">
<path d="M14.1066 13.9645C13.1689 14.9021 12.6421 16.1739 12.6421 17.5C12.6421 18.8261 13.1689 20.0979 14.1066 21.0355C14.4971 21.4261 14.4971 22.0592 14.1066 22.4497C13.7161 22.8403 13.0829 22.8403 12.6924 22.4497C11.3796 21.137 10.6421 19.3565 10.6421 17.5C10.6421 15.6435 11.3796 13.863 12.6924 12.5503C13.0829 12.1597 13.7161 12.1597 14.1066 12.5503C14.4971 12.9408 14.4971 13.5739 14.1066 13.9645Z" fill="black"/>
<path fill-rule="evenodd" clip-rule="evenodd" d="M9.86395 9.72183C5.56818 14.0176 5.56818 20.9824 9.86395 25.2782C13.9214 29.3356 20.3599 29.5607 24.6815 25.9535L26.2481 27.5201C25.7154 28.6353 25.9108 30.0114 26.8345 30.935L33.9056 38.0061C35.0771 39.1777 36.9766 39.1777 38.1482 38.0061C39.3198 36.8345 39.3198 34.935 38.1482 33.7635L31.0771 26.6924C30.1535 25.7688 28.7775 25.5733 27.6624 26.106L26.0957 24.5393C29.7028 20.2177 29.4777 13.7792 25.4203 9.72183C21.1245 5.42606 14.1597 5.42606 9.86395 9.72183ZM11.2782 23.864C7.76344 20.3492 7.76344 14.6508 11.2782 11.136C14.7929 7.62132 20.4914 7.62132 24.0061 11.136C27.5208 14.6508 27.5208 20.3492 24.0061 23.864C20.4914 27.3787 14.7929 27.3787 11.2782 23.864ZM28.2487 29.5208C27.8582 29.1303 27.8582 28.4971 28.2487 28.1066C28.6392 27.7161 29.2724 27.7161 29.6629 28.1066L36.734 35.1777C37.1245 35.5682 37.1245 36.2014 36.734 36.5919C36.3435 36.9824 35.7103 36.9824 35.3198 36.5919L28.2487 29.5208Z" fill="black"/>
</svg>
