<svg width="48" height="48" viewBox="0 0 48 48" fill="none" xmlns="http://www.w3.org/2000/svg">
<path d="M30.41 4.54582C31.0187 5.10786 31.3947 5.92183 31.3746 6.81777C31.3623 7.36394 31.2044 7.87308 30.9394 8.30838C31.1846 8.75513 31.3195 9.27084 31.3073 9.81701C31.295 10.3632 31.1371 10.8723 30.8721 11.3076C31.1173 11.7544 31.2522 12.2701 31.24 12.8163C31.2199 13.7122 30.8077 14.5085 30.1744 15.0427C29.7523 15.3987 29.1214 15.3452 28.7653 14.923C28.4092 14.5008 28.4628 13.8699 28.8849 13.5139C29.0983 13.3339 29.2338 13.0698 29.2405 12.7714C29.2472 12.4729 29.1237 12.2031 28.9186 12.0137C28.7078 11.8191 28.5908 11.5434 28.5972 11.2566C28.6037 10.9698 28.7329 10.6996 28.9522 10.5146C29.1656 10.3347 29.3011 10.0706 29.3078 9.77215C29.3145 9.47369 29.191 9.20382 28.9859 9.01447C28.7751 8.81987 28.6581 8.54413 28.6645 8.25733C28.671 7.97054 28.8003 7.70033 29.0195 7.51537C29.2329 7.33541 29.3684 7.07136 29.3751 6.7729C29.3818 6.47444 29.2583 6.20458 29.0532 6.01523C28.6474 5.64057 28.6222 5.0079 28.9969 4.60214C29.3715 4.19637 30.0042 4.17115 30.41 4.54582Z" fill="black"/>
<path d="M22.6378 6.71754C22.2473 7.10806 21.6142 7.10806 21.2236 6.71754C20.8331 6.32701 20.8331 5.69385 21.2236 5.30333C21.6142 4.9128 22.2473 4.9128 22.6378 5.30333C23.0284 5.69385 23.0284 6.32701 22.6378 6.71754Z" fill="black"/>
<path d="M22.9914 7.77818C23.3819 7.38765 24.0151 7.38765 24.4056 7.77818C25.3747 8.74726 25.9795 10.0193 26.132 11.3917C26.2844 12.763 25.9768 14.1563 25.2665 15.3581C24.9854 15.8335 24.3722 15.9911 23.8968 15.7101C23.4213 15.4291 23.2637 14.8158 23.5447 14.3404C24.0401 13.5023 24.2476 12.5424 24.1443 11.6125C24.041 10.6836 23.6338 9.83481 22.9914 9.19239C22.6009 8.80187 22.6009 8.1687 22.9914 7.77818Z" fill="black"/>
<path fill-rule="evenodd" clip-rule="evenodd" d="M18.5886 13.8622C18.9058 13.8107 19.2285 13.9149 19.4558 14.1422L33.598 28.2843C33.8253 28.5116 33.9295 28.8343 33.878 29.1516C33.8265 29.4689 33.6256 29.7421 33.3381 29.8859L10.4204 41.3447C7.8417 42.6341 5.10613 39.8985 6.39546 37.3198L10.7727 28.5654C10.7793 28.5513 10.7863 28.5373 10.7936 28.5234L17.8543 14.4021C17.9981 14.1146 18.2713 13.9137 18.5886 13.8622ZM19.0227 16.5375L28.3615 25.8763C24.3519 24.6413 20.6855 22.4429 17.6944 19.4517L17.6085 19.3658L19.0227 16.5375ZM15.2515 24.0799L16.6682 21.2464C20.6366 25.063 25.6492 27.6187 31.0726 28.5873L31.2027 28.7175L27.0974 30.7702C22.8094 29.846 18.8761 27.7046 15.7711 24.5995L15.2515 24.0799ZM14.3086 25.9656L14.3568 26.0138C17.1761 28.833 20.623 30.9218 24.3981 32.1198L21.2233 33.7072C18.1252 32.7061 15.28 31.0274 12.899 28.7848L14.3086 25.9656ZM10.5393 33.5042L11.9686 30.6457C13.985 32.4522 16.2865 33.8994 18.7718 34.933L15.1371 36.7503C13.4581 35.9087 11.9068 34.8167 10.5393 33.5042ZM9.60703 35.3688L8.18431 38.2142C7.75453 39.0738 8.6664 39.9856 9.52595 39.5559L12.9598 37.8389C11.7667 37.1322 10.6429 36.3055 9.60703 35.3688Z" fill="black"/>
<path d="M46.3259 18.3847C46.7165 18.7752 46.7165 19.4084 46.3259 19.7989C45.9354 20.1895 45.3022 20.1895 44.9117 19.7989C43.9605 18.8478 42.6754 18.2627 41.2397 18.1522C39.8011 18.0416 38.2904 18.4149 36.9491 19.2373C36.4783 19.5259 35.8626 19.3782 35.5739 18.9074C35.2852 18.4365 35.4329 17.8208 35.9038 17.5322C37.5807 16.5041 39.5077 16.0131 41.3931 16.1581C43.2815 16.3034 45.021 17.0798 46.3259 18.3847Z" fill="black"/>
<path d="M29.1786 18.208C28.788 18.5985 28.1549 18.5985 27.7643 18.208C27.3738 17.8175 27.3738 17.1843 27.7643 16.7938C28.1549 16.4033 28.788 16.4033 29.1786 16.7938C29.5691 17.1843 29.5691 17.8175 29.1786 18.208Z" fill="black"/>
<path d="M42.7904 26.1631C43.1809 26.5536 43.8141 26.5536 44.2046 26.1631C44.5951 25.7726 44.5951 25.1394 44.2046 24.7489C43.8141 24.3584 43.1809 24.3584 42.7904 24.7489C42.3999 25.1394 42.3999 25.7726 42.7904 26.1631Z" fill="black"/>
<path d="M32.8909 20.5061C33.2814 20.8966 33.9146 20.8966 34.3051 20.5061C34.6956 20.1156 34.6956 19.4824 34.3051 19.0919C33.9146 18.7014 33.2814 18.7014 32.8909 19.0919C32.5003 19.4824 32.5003 20.1156 32.8909 20.5061Z" fill="black"/>
<path d="M39.4853 24.9694C39.2882 24.7461 39.003 24.6077 38.6843 24.6077C38.3655 24.6077 38.0804 24.7461 37.8833 24.9694C37.6934 25.1845 37.4204 25.3077 37.1335 25.3077C36.8467 25.3077 36.5736 25.1845 36.3838 24.9694C36.1867 24.7461 35.9015 24.6077 35.5828 24.6077C35.264 24.6077 34.9789 24.7461 34.7818 24.9694C34.4163 25.3835 33.7844 25.4229 33.3703 25.0574C32.9562 24.692 32.9168 24.06 33.2823 23.646C33.8429 23.0108 34.6664 22.6077 35.5828 22.6077C36.1484 22.6077 36.6787 22.7613 37.1335 23.0282C37.5884 22.7613 38.1187 22.6077 38.6843 22.6077C39.6007 22.6077 40.4241 23.0108 40.9848 23.646C41.3503 24.06 41.3109 24.692 40.8968 25.0574C40.4827 25.4229 39.8508 25.3835 39.4853 24.9694Z" fill="black"/>
</svg>
