<svg width="48" height="48" viewBox="0 0 48 48" fill="none" xmlns="http://www.w3.org/2000/svg">
<path d="M25 4C25 3.44772 24.5523 3 24 3C23.4477 3 23 3.44772 23 4V6C23 6.55228 23.4477 7 24 7C24.5523 7 25 6.55228 25 6V4Z" fill="black"/>
<path fill-rule="evenodd" clip-rule="evenodd" d="M15.0979 9C14.0722 9 13.1176 9.52403 12.5669 10.3894L6.9288 19.2493C6.23661 20.337 6.31682 21.7454 7.12806 22.7475L21.6683 40.7089C22.869 42.1922 25.1311 42.1922 26.3317 40.7089L40.872 22.7475C41.6832 21.7454 41.7634 20.337 41.0712 19.2493L35.4331 10.3894C34.8824 9.52403 33.9278 9 32.9021 9H15.0979ZM22.3155 11H15.4277L18.1828 18.5765L22.3155 11ZM24 37.0996L19.354 22H28.646L24 37.0996ZM25.7321 38.271L30.7386 21.9999H38.9039L25.7321 38.271ZM17.2614 21.9999L22.2679 38.271L9.09609 21.9999H17.2614ZM29.8172 18.5765L25.6845 11H32.5723L29.8172 18.5765ZM13.7539 12.2494L8.82172 19.9999H16.5723L13.7539 12.2494ZM34.2461 12.2493L39.1783 19.9999H31.4277L34.2461 12.2493ZM28.3155 20L24 12.0883L19.6845 20H28.3155Z" fill="black"/>
<path d="M29.6568 4.34309C30.0474 4.73362 30.0474 5.36678 29.6568 5.75731L28.2426 7.17152C27.8521 7.56204 27.2189 7.56204 26.8284 7.17152C26.4379 6.781 26.4379 6.14783 26.8284 5.75731L28.2426 4.34309C28.6332 3.95257 29.2663 3.95257 29.6568 4.34309Z" fill="black"/>
<path d="M18.3432 5.75731C17.9526 5.36678 17.9526 4.73362 18.3432 4.34309C18.7337 3.95257 19.3668 3.95257 19.7574 4.34309L21.1716 5.75731C21.5621 6.14783 21.5621 6.781 21.1716 7.17152C20.7811 7.56204 20.1479 7.56204 19.7574 7.17152L18.3432 5.75731Z" fill="black"/>
</svg>
