<svg width="48" height="48" viewBox="0 0 48 48" fill="none" xmlns="http://www.w3.org/2000/svg">
<path d="M24 26C25.1046 26 26 25.1046 26 24C26 22.8954 25.1046 22 24 22C22.8954 22 22 22.8954 22 24C22 25.1046 22.8954 26 24 26Z" fill="black"/>
<path fill-rule="evenodd" clip-rule="evenodd" d="M24 4C24.5523 4 25 4.44772 25 5V6.02731C34.145 6.52806 41.4719 13.855 41.9727 23H43C43.5523 23 44 23.4477 44 24C44 24.5523 43.5523 25 43 25H41.9727C41.4719 34.145 34.145 41.4719 25 41.9727V43C25 43.5523 24.5523 44 24 44C23.4477 44 23 43.5523 23 43V41.9727C13.855 41.4719 6.52806 34.145 6.02731 25H5C4.44771 25 4 24.5523 4 24C4 23.4477 4.44771 23 5 23H6.02731C6.52806 13.855 13.855 6.52806 23 6.02731V5C23 4.44772 23.4477 4 24 4ZM23 8.03074C14.96 8.52654 8.52654 14.96 8.03074 23H10.0352C10.5246 16.065 16.065 10.5246 23 10.0352V8.03074ZM13 25H12.0411C12.522 30.8298 17.1702 35.478 23 35.9589V35C23 34.4477 23.4477 34 24 34C24.5523 34 25 34.4477 25 35V35.9589C30.8298 35.478 35.478 30.8298 35.9589 25H35C34.4477 25 34 24.5523 34 24C34 23.4477 34.4477 23 35 23H35.9589C35.478 17.1702 30.8298 12.522 25 12.0411V13C25 13.5523 24.5523 14 24 14C23.4477 14 23 13.5523 23 13V12.0411C17.1702 12.522 12.522 17.1702 12.0411 23H13C13.5523 23 14 23.4477 14 24C14 24.5523 13.5523 25 13 25ZM8.03074 25H10.0352C10.5246 31.935 16.065 37.4754 23 37.9648V39.9693C14.96 39.4735 8.52654 33.04 8.03074 25ZM25 39.9693V37.9648C31.935 37.4754 37.4754 31.935 37.9648 25H39.9693C39.4735 33.04 33.04 39.4735 25 39.9693ZM39.9693 23H37.9648C37.4754 16.065 31.935 10.5246 25 10.0352V8.03074C33.04 8.52654 39.4735 14.96 39.9693 23Z" fill="black"/>
</svg>
