<svg width="48" height="48" viewBox="0 0 48 48" fill="none" xmlns="http://www.w3.org/2000/svg">
<path fill-rule="evenodd" clip-rule="evenodd" d="M22.0645 13.3361L23.1359 11.4967C23.315 11.1892 23.6441 11 24 11C24.3559 11 24.685 11.1892 24.8641 11.4967L25.9354 13.3361L28.0159 13.7866C28.3637 13.8619 28.6453 14.1164 28.7553 14.4549C28.8652 14.7934 28.787 15.1648 28.5499 15.4302L27.1316 17.0175L27.346 19.1353C27.3819 19.4894 27.2268 19.8359 26.9389 20.0451C26.651 20.2543 26.2736 20.2947 25.9479 20.1512L24 19.2928L22.0521 20.1512C21.7264 20.2947 21.349 20.2543 21.0611 20.0451C20.7731 19.8359 20.6181 19.4894 20.6539 19.1353L20.8684 17.0175L19.4501 15.4302C19.2129 15.1648 19.1347 14.7934 19.2447 14.4549C19.3547 14.1164 19.6363 13.8619 19.9841 13.7866L22.0645 13.3361ZM24 13.9869L23.571 14.7235C23.4297 14.9661 23.1929 15.1381 22.9185 15.1975L22.0854 15.3779L22.6534 16.0135C22.8404 16.2229 22.9309 16.5012 22.9026 16.7806L22.8167 17.6286L23.5967 17.2849C23.8536 17.1717 24.1463 17.1717 24.4032 17.2849L25.1833 17.6286L25.0974 16.7806C25.0691 16.5012 25.1596 16.2229 25.3466 16.0135L25.9146 15.3779L25.0815 15.1975C24.8071 15.1381 24.5703 14.9661 24.429 14.7235L24 13.9869Z" fill="black"/>
<path d="M21 39C21 38.4477 21.4477 38 22 38H26C26.5523 38 27 38.4477 27 39C27 39.5523 26.5523 40 26 40H22C21.4477 40 21 39.5523 21 39Z" fill="black"/>
<path fill-rule="evenodd" clip-rule="evenodd" d="M13 4C12.4477 4 12 4.44772 12 5C12 5.55229 12.4477 6 13 6H14V8H10C8.89543 8 8 8.89543 8 10V15C8 19.6169 11.4765 23.4219 15.9545 23.9399C17.1988 25.6225 18.9583 26.9009 21 27.5422V34H18C16.3431 34 15 35.3431 15 37V42H14C13.4477 42 13 42.4477 13 43C13 43.5523 13.4477 44 14 44H34C34.5523 44 35 43.5523 35 43C35 42.4477 34.5523 42 34 42H33V37C33 35.3431 31.6569 34 30 34H27V27.5422C29.0417 26.9009 30.8012 25.6225 32.0455 23.9399C36.5235 23.4219 40 19.6169 40 15V10C40 8.89543 39.1046 8 38 8H34V6L35 6C35.5523 6 36 5.55228 36 5C36 4.44772 35.5523 4 35 4H13ZM34 10V18C34 19.27 33.7633 20.4847 33.3315 21.6023C36.0512 20.6419 38 18.0485 38 15V10H34ZM10 15V10H14V18C14 19.27 14.2367 20.4847 14.6685 21.6023C11.9488 20.6419 10 18.0485 10 15ZM32 6H16V18C16 22.4183 19.5817 26 24 26C28.4183 26 32 22.4183 32 18V6ZM25 34V28H23V34H25ZM17 42V37C17 36.4477 17.4477 36 18 36H30C30.5523 36 31 36.4477 31 37V42H17Z" fill="black"/>
</svg>
