<svg width="48" height="48" viewBox="0 0 48 48" fill="none" xmlns="http://www.w3.org/2000/svg">
<path fill-rule="evenodd" clip-rule="evenodd" d="M25.7282 17.9802C24.9567 16.6557 23.0432 16.6557 22.2717 17.9802L21.0947 20.0011L18.8089 20.4961C17.3108 20.8205 16.7195 22.6404 17.7408 23.7834L19.2991 25.5273L19.0635 27.8542C18.9091 29.3792 20.4572 30.5039 21.8598 29.8858L24 28.9427L26.1401 29.8858C27.5428 30.5039 29.0908 29.3792 28.9364 27.8542L28.7008 25.5273L30.2591 23.7834C31.2804 22.6404 30.6891 20.8205 29.191 20.4961L26.9053 20.0011L25.7282 17.9802ZM22.8229 21.0077L24 18.9868L25.177 21.0077C25.4597 21.4929 25.9332 21.837 26.482 21.9558L28.7677 22.4508L27.2095 24.1948C26.8353 24.6135 26.6545 25.1702 26.711 25.7288L26.9466 28.0556L24.8065 27.1125C24.2926 26.8861 23.7073 26.8861 23.1935 27.1125L21.0533 28.0556L21.2889 25.7288C21.3455 25.1702 21.1646 24.6135 20.7905 24.1948L19.2322 22.4508L21.518 21.9558C22.0667 21.837 22.5403 21.4929 22.8229 21.0077Z" fill="black"/>
<path fill-rule="evenodd" clip-rule="evenodd" d="M24.4472 4.10557C24.1657 3.96481 23.8343 3.96481 23.5528 4.10557L19.7757 5.99412C17.1374 7.31324 14.2283 8 11.2786 8H9C8.44772 8 8 8.44772 8 9V26.5778C8 30.9244 10.1723 34.9834 13.7889 37.3944L23.4453 43.8321C23.7812 44.056 24.2188 44.056 24.5547 43.8321L34.2111 37.3944C37.8277 34.9834 40 30.9244 40 26.5778V9C40 8.44772 39.5523 8 39 8H36.7214C33.7717 8 30.8626 7.31324 28.2243 5.99412L24.4472 4.10557ZM20.6701 7.78297L24 6.11803L27.3299 7.78297C30.2458 9.24095 33.4612 10 36.7214 10H38V26.5778C38 30.2557 36.1619 33.6902 33.1017 35.7303L24 41.7981L14.8983 35.7303C11.8381 33.6902 10 30.2557 10 26.5778V10H11.2786C14.5388 10 17.7542 9.24095 20.6701 7.78297Z" fill="black"/>
</svg>
