<svg width="48" height="48" viewBox="0 0 48 48" fill="none" xmlns="http://www.w3.org/2000/svg">
<path d="M22.9393 25.0606C22.3536 24.4749 22.3536 23.5251 22.9393 22.9393C23.5251 22.3535 24.4749 22.3535 25.0607 22.9393C25.6464 23.5251 25.6464 24.4749 25.0607 25.0606C24.4749 25.6464 23.5251 25.6464 22.9393 25.0606Z" fill="black"/>
<path fill-rule="evenodd" clip-rule="evenodd" d="M32.0709 17.1922C32.1893 16.8335 32.0955 16.4387 31.8284 16.1716C31.5613 15.9045 31.1665 15.8107 30.8078 15.9291L20.1007 19.4647C19.7999 19.564 19.5639 19.7999 19.4646 20.1007L15.9291 30.8078C15.8107 31.1665 15.9044 31.5613 16.1716 31.8284C16.4387 32.0956 16.8335 32.1893 17.1922 32.0709L27.8993 28.5354C28.2001 28.4361 28.436 28.2001 28.5353 27.8993L32.0709 17.1922ZM21.2059 21.2059L29.549 18.451L26.7941 26.7941L18.451 29.549L21.2059 21.2059Z" fill="black"/>
<path fill-rule="evenodd" clip-rule="evenodd" d="M24 8C15.1634 8 8 15.1634 8 24C8 32.8366 15.1634 40 24 40C32.8366 40 40 32.8366 40 24C40 15.1634 32.8366 8 24 8ZM10 24C10 16.268 16.268 10 24 10C31.732 10 38 16.268 38 24C38 31.732 31.732 38 24 38C16.268 38 10 31.732 10 24Z" fill="black"/>
<path fill-rule="evenodd" clip-rule="evenodd" d="M24 4C12.9543 4 4 12.9543 4 24C4 35.0457 12.9543 44 24 44C35.0457 44 44 35.0457 44 24C44 12.9543 35.0457 4 24 4ZM6 24C6 14.0589 14.0589 6 24 6C33.9411 6 42 14.0589 42 24C42 33.9411 33.9411 42 24 42C14.0589 42 6 33.9411 6 24Z" fill="black"/>
</svg>
