<svg width="48" height="48" viewBox="0 0 48 48" fill="none" xmlns="http://www.w3.org/2000/svg">
<path fill-rule="evenodd" clip-rule="evenodd" d="M7 6C6.44772 6 6 6.44772 6 7V16.4853C6 16.7839 6.13347 17.0669 6.3639 17.2569L27.3134 34.5272L26.6777 35.163C26.2871 35.5535 26.2871 36.1866 26.6777 36.5772C27.0682 36.9677 27.7014 36.9677 28.0919 36.5772L30.2132 34.4558L33.9992 38.2419C34.0579 39.1794 34.4457 40.1025 35.163 40.8198C36.725 42.3819 39.2577 42.3819 40.8198 40.8198C42.3819 39.2577 42.3819 36.725 40.8198 35.163C40.1025 34.4457 39.1794 34.0579 38.2419 33.9992L34.4558 30.2132L36.5772 28.0919C36.9677 27.7014 36.9677 27.0682 36.5772 26.6777C36.1866 26.2871 35.5535 26.2871 35.163 26.6777L34.5272 27.3134L17.2569 6.3639C17.0669 6.13347 16.7839 6 16.4853 6H7ZM30.2132 31.6274L28.7342 33.1064L8 16.0137V8H16.0137L33.1064 28.7342L31.6274 30.2132L14.6569 13.2426C14.2663 12.8521 13.6332 12.8521 13.2426 13.2426C12.8521 13.6332 12.8521 14.2663 13.2426 14.6569L30.2132 31.6274ZM36.0192 37.4334L31.6274 33.0416L33.0416 31.6274L37.4334 36.0192L37.8797 35.9945C38.4302 35.964 38.9868 36.1584 39.4056 36.5772C40.1866 37.3582 40.1866 38.6245 39.4056 39.4056C38.6245 40.1866 37.3582 40.1866 36.5772 39.4056C36.1584 38.9868 35.964 38.4302 35.9945 37.8797L36.0192 37.4334Z" fill="black"/>
<path d="M40.9914 6C41.5437 6 41.9914 6.44772 41.9914 7V16.4853C41.9914 16.7839 41.8579 17.0669 41.6275 17.2569L34.3044 23.2939C33.8782 23.6452 33.248 23.5845 32.8967 23.1584C32.5454 22.7322 32.6061 22.102 33.0322 21.7507L39.9914 16.0137V8H31.9777L27.2235 13.7671C26.8722 14.1932 26.2419 14.2539 25.8158 13.9026C25.3896 13.5513 25.329 12.921 25.6803 12.4949L30.7345 6.3639C30.9245 6.13347 31.2075 6 31.5061 6H40.9914Z" fill="black"/>
<path d="M33.3345 13.2426C33.7251 12.8521 34.3582 12.8521 34.7488 13.2426C35.1393 13.6332 35.1393 14.2663 34.7488 14.6569L31.0364 18.3692C30.6459 18.7597 30.0128 18.7597 29.6222 18.3692C29.2317 17.9786 29.2317 17.3455 29.6222 16.955L33.3345 13.2426Z" fill="black"/>
<path fill-rule="evenodd" clip-rule="evenodd" d="M14.0977 26.545C14.449 26.1189 15.0793 26.0582 15.5054 26.4095C15.9315 26.7608 15.9922 27.391 15.6409 27.8172L14.885 28.7342L16.364 30.2132L17.2813 29.2959C17.6718 28.9054 18.305 28.9054 18.6955 29.2959C19.086 29.6864 19.086 30.3196 18.6955 30.7101L17.7782 31.6274L19.2572 33.1064L20.6 31.9995C21.0261 31.6482 21.6564 31.7089 22.0077 32.135C22.359 32.5612 22.2983 33.1914 21.8722 33.5427L20.678 34.5272L21.3137 35.163C21.7043 35.5535 21.7043 36.1866 21.3137 36.5772C20.9232 36.9677 20.29 36.9677 19.8995 36.5772L17.7782 34.4558L13.9922 38.2419C13.9335 39.1794 13.5457 40.1025 12.8284 40.8198C11.2663 42.3819 8.73369 42.3819 7.17159 40.8198C5.60949 39.2577 5.60949 36.725 7.17159 35.163C7.88886 34.4457 8.81196 34.0579 9.74952 33.9992L13.5355 30.2132L11.4142 28.0919C11.0237 27.7014 11.0237 27.0682 11.4142 26.6777C11.8048 26.2871 12.4379 26.2871 12.8284 26.6777L13.4642 27.3134L14.0977 26.545ZM12.2883 37.1173L16.364 33.0416L14.9498 31.6274L10.8741 35.7031C10.6729 35.9042 10.3957 36.0102 10.1117 35.9945C9.56124 35.964 9.00458 36.1584 8.5858 36.5772C7.80476 37.3582 7.80476 38.6245 8.5858 39.4056C9.36685 40.1866 10.6332 40.1866 11.4142 39.4056C11.833 38.9868 12.0274 38.4302 11.9969 37.8797C11.9812 37.5957 12.0872 37.3185 12.2883 37.1173Z" fill="black"/>
</svg>
