<svg width="48" height="48" viewBox="0 0 48 48" fill="none" xmlns="http://www.w3.org/2000/svg">
<path d="M15 6C15.5523 6 16 6.44772 16 7V10H29C29.5523 10 30 10.4477 30 11C30 11.5523 29.5523 12 29 12H16V14C16 14.5523 15.5523 15 15 15C14.4477 15 14 14.5523 14 14V7C14 6.44772 14.4477 6 15 6Z" fill="black"/>
<path fill-rule="evenodd" clip-rule="evenodd" d="M12 23C12 22.4477 12.4477 22 13 22H17C17.5523 22 18 22.4477 18 23V27C18 27.5523 17.5523 28 17 28H13C12.4477 28 12 27.5523 12 27V23ZM14 24V26H16V24H14Z" fill="black"/>
<path fill-rule="evenodd" clip-rule="evenodd" d="M13 31C12.4477 31 12 31.4477 12 32V36C12 36.5523 12.4477 37 13 37H17C17.5523 37 18 36.5523 18 36V32C18 31.4477 17.5523 31 17 31H13ZM14 35V33H16V35H14Z" fill="black"/>
<path fill-rule="evenodd" clip-rule="evenodd" d="M21 23C21 22.4477 21.4477 22 22 22H26C26.5523 22 27 22.4477 27 23V27C27 27.5523 26.5523 28 26 28H22C21.4477 28 21 27.5523 21 27V23ZM23 24V26H25V24H23Z" fill="black"/>
<path fill-rule="evenodd" clip-rule="evenodd" d="M22 31C21.4477 31 21 31.4477 21 32V36C21 36.5523 21.4477 37 22 37H26C26.5523 37 27 36.5523 27 36V32C27 31.4477 26.5523 31 26 31H22ZM23 35V33H25V35H23Z" fill="black"/>
<path fill-rule="evenodd" clip-rule="evenodd" d="M30 23C30 22.4477 30.4477 22 31 22H35C35.5523 22 36 22.4477 36 23V27C36 27.5523 35.5523 28 35 28H31C30.4477 28 30 27.5523 30 27V23ZM32 24V26H34V24H32Z" fill="black"/>
<path fill-rule="evenodd" clip-rule="evenodd" d="M31 31C30.4477 31 30 31.4477 30 32V36C30 36.5523 30.4477 37 31 37H35C35.5523 37 36 36.5523 36 36V32C36 31.4477 35.5523 31 35 31H31ZM32 35V33H34V35H32Z" fill="black"/>
<path fill-rule="evenodd" clip-rule="evenodd" d="M8 13C8 12.4477 8.44772 12 9 12H11C11.5523 12 12 11.5523 12 11C12 10.4477 11.5523 10 11 10H9C7.34315 10 6 11.3431 6 13V39C6 40.6569 7.34315 42 9 42H39C40.6569 42 42 40.6569 42 39V13C42 11.3431 40.6569 10 39 10H34V7C34 6.44772 33.5523 6 33 6C32.4477 6 32 6.44772 32 7V14C32 14.5523 32.4477 15 33 15C33.5523 15 34 14.5523 34 14V12H39C39.5523 12 40 12.4477 40 13V17H8V13ZM8 19V39C8 39.5523 8.44772 40 9 40H39C39.5523 40 40 39.5523 40 39V19H8Z" fill="black"/>
</svg>
