<svg width="48" height="48" viewBox="0 0 48 48" fill="none" xmlns="http://www.w3.org/2000/svg">
<path d="M24 15C24.5523 15 25 15.4477 25 16V19H28C28.5523 19 29 19.4477 29 20C29 20.5523 28.5523 21 28 21H25V24C25 24.5523 24.5523 25 24 25C23.4477 25 23 24.5523 23 24V21H20C19.4477 21 19 20.5523 19 20C19 19.4477 19.4477 19 20 19H23V16C23 15.4477 23.4477 15 24 15Z" fill="black"/>
<path fill-rule="evenodd" clip-rule="evenodd" d="M14 20C14 14.4772 18.4772 10 24 10C29.5228 10 34 14.4772 34 20C34 25.5228 29.5228 30 24 30C18.4772 30 14 25.5228 14 20ZM24 12C19.5817 12 16 15.5817 16 20C16 24.4183 19.5817 28 24 28C28.4183 28 32 24.4183 32 20C32 15.5817 28.4183 12 24 12Z" fill="black"/>
<path fill-rule="evenodd" clip-rule="evenodd" d="M24.6588 43.7523C25.4771 43.0371 26.266 42.2871 27.0429 41.5275C28.4658 40.1362 30.3656 38.1734 32.2682 35.8902C34.1682 33.6102 36.0883 30.9903 37.5377 28.2847C38.9806 25.5913 40 22.7342 40 20C40 14.7507 38.154 10.7203 35.1727 8.01006C32.2067 5.31371 28.202 4 24 4C19.798 4 15.7933 5.31371 12.8273 8.01006C9.84602 10.7203 8 14.7507 8 20C8 22.7342 9.01938 25.5913 10.4623 28.2847C11.9117 30.9903 13.8318 33.6102 15.7318 35.8902C17.6344 38.1734 19.5342 40.1362 20.9571 41.5275C21.734 42.2871 22.5229 43.0371 23.3412 43.7523C23.7127 44.0748 24.2875 44.0746 24.6588 43.7523ZM14.1727 9.48994C11.654 11.7797 10 15.2493 10 20C10 22.2658 10.8556 24.7837 12.2252 27.3403C13.5883 29.8847 15.4182 32.3898 17.2682 34.6098C19.1156 36.8266 20.9658 38.7388 22.3554 40.0975C23.0324 40.7595 23.5986 41.2887 24 41.6562C24.4014 41.2887 24.9676 40.7595 25.6446 40.0975C27.0342 38.7388 28.8844 36.8266 30.7318 34.6098C32.5818 32.3898 34.4117 29.8847 35.7748 27.3403C37.1444 24.7837 38 22.2658 38 20C38 15.2493 36.346 11.7797 33.8273 9.48994C31.2933 7.18629 27.798 6 24 6C20.202 6 16.7067 7.18629 14.1727 9.48994Z" fill="black"/>
</svg>
