<svg width="48" height="48" viewBox="0 0 48 48" fill="none" xmlns="http://www.w3.org/2000/svg">
<path fill-rule="evenodd" clip-rule="evenodd" d="M22.2717 24.9802C23.0432 23.6557 24.9567 23.6557 25.7282 24.9802L26.9053 27.0011L29.191 27.4961C30.6891 27.8205 31.2804 29.6404 30.2591 30.7834L28.7008 32.5273L28.9364 34.8542C29.0908 36.3792 27.5428 37.5039 26.1401 36.8858L24 35.9427L21.8598 36.8858C20.4572 37.5039 18.9091 36.3792 19.0635 34.8542L19.2991 32.5273L17.7408 30.7834C16.7195 29.6404 17.3108 27.8205 18.8089 27.4961L21.0947 27.0011L22.2717 24.9802ZM24 25.9868L22.8229 28.0077C22.5403 28.4929 22.0667 28.837 21.518 28.9558L19.2322 29.4508L20.7905 31.1948C21.1646 31.6135 21.3455 32.1702 21.2889 32.7288L21.0533 35.0556L23.1935 34.1125C23.7073 33.8861 24.2926 33.8861 24.8065 34.1125L26.9466 35.0556L26.711 32.7288C26.6545 32.1702 26.8353 31.6135 27.2095 31.1948L28.7677 29.4508L26.482 28.9558C25.9332 28.837 25.4597 28.4929 25.177 28.0077L24 25.9868Z" fill="black"/>
<path fill-rule="evenodd" clip-rule="evenodd" d="M11 4C9.34315 4 8 5.34315 8 7V14C8 14.3679 8.20199 14.7061 8.5259 14.8805L17.5237 19.7255C13.6249 21.9698 11 26.1784 11 31C11 38.1797 16.8203 44 24 44C31.1797 44 37 38.1797 37 31C37 26.1784 34.3751 21.9698 30.4763 19.7255L39.4741 14.8805C39.798 14.7061 40 14.3679 40 14V7C40 5.34315 38.6569 4 37 4H11ZM28 18.627V6H25V18.0379C26.0389 18.1169 27.0437 18.3181 28 18.627ZM23 18.0379V6H20V18.627C20.9563 18.3181 21.9611 18.1169 23 18.0379ZM30 17.7104V6H37C37.5523 6 38 6.44772 38 7V13.4027L30 17.7104ZM11 6H18V17.7104L10 13.4027V7C10 6.44772 10.4477 6 11 6ZM24 20C17.9249 20 13 24.9249 13 31C13 37.0751 17.9249 42 24 42C30.0751 42 35 37.0751 35 31C35 24.9249 30.0751 20 24 20Z" fill="black"/>
</svg>
