<svg width="48" height="48" viewBox="0 0 48 48" fill="none" xmlns="http://www.w3.org/2000/svg">
<path d="M9.67664 3.94719C9.42965 3.45321 9.62987 2.85254 10.1239 2.60555C10.6178 2.35856 11.2185 2.55878 11.4655 3.05276L12.8797 5.88119C13.1267 6.37517 12.9265 6.97584 12.4325 7.22283C11.9385 7.46982 11.3378 7.26959 11.0909 6.77562L9.67664 3.94719Z" fill="black"/>
<path d="M4.2071 4.20704C3.81657 4.59756 3.81657 5.23072 4.2071 5.62125L8.44974 9.86389C8.84026 10.2544 9.47343 10.2544 9.86395 9.86389C10.2545 9.47337 10.2545 8.8402 9.86395 8.44968L5.62131 4.20704C5.23079 3.81651 4.59762 3.81651 4.2071 4.20704Z" fill="black"/>
<path fill-rule="evenodd" clip-rule="evenodd" d="M14.0061 28.006C14.0061 27.4537 14.4538 27.006 15.0061 27.006L33.0061 27.006C33.5584 27.006 34.0061 27.4537 34.0061 28.006C34.0061 29.3193 33.7474 30.6196 33.2449 31.8329C32.7423 33.0461 32.0057 34.1485 31.0772 35.0771C30.9611 35.1932 30.8423 35.3062 30.7209 35.4162C29.8712 36.1862 28.8945 36.8051 27.8329 37.2448C27.6813 37.3076 27.5283 37.3667 27.374 37.4218C26.2944 37.808 25.1552 38.006 24.0061 38.006C23.924 38.006 23.842 38.005 23.76 38.003C22.5307 37.9727 21.3167 37.716 20.1793 37.2448C20.1034 37.2134 20.028 37.1811 19.9531 37.1479C18.8688 36.6672 17.8783 35.9972 17.0283 35.1692C16.997 35.1387 16.9659 35.108 16.935 35.0771C16.0064 34.1485 15.2698 33.0461 14.7673 31.8329C14.2648 30.6196 14.0061 29.3193 14.0061 28.006ZM19.1365 34.3532C19.1711 34.3798 19.2059 34.4061 19.241 34.432C19.766 34.8214 20.338 35.1458 20.9446 35.3971C21.9152 35.7991 22.9555 36.006 24.0061 36.006C25.0567 36.006 26.097 35.7991 27.0676 35.3971C27.6793 35.1437 28.2558 34.8159 28.7844 34.4222C28.7628 34.4 28.741 34.3779 28.719 34.3559C28.0896 33.7266 27.3425 33.2273 26.5202 32.8867C25.6978 32.5461 24.8165 32.3708 23.9264 32.3708C23.0363 32.3708 22.155 32.5461 21.3327 32.8867C20.5115 33.2268 19.7653 33.7251 19.1365 34.3532ZM30.2266 33.0365C30.1957 33.0047 30.1646 32.9731 30.1332 32.9417C29.3181 32.1266 28.3505 31.4801 27.2855 31.0389C26.2206 30.5978 25.0791 30.3708 23.9264 30.3708C22.7737 30.3708 21.6323 30.5978 20.5673 31.0389C19.5023 31.4801 18.5347 32.1266 17.7196 32.9417L17.7143 32.947C17.2649 32.3747 16.8947 31.7426 16.6151 31.0675C16.3412 30.4064 16.1579 29.713 16.0688 29.006L31.9433 29.006C31.8543 29.713 31.671 30.4064 31.3971 31.0675C31.1029 31.7779 30.7083 32.4408 30.2266 33.0365Z" fill="black"/>
<path fill-rule="evenodd" clip-rule="evenodd" d="M17.0061 12.006C17.362 12.006 17.6911 12.1952 17.8702 12.5027L19.5881 15.4522L22.9241 16.1746C23.2719 16.2499 23.5535 16.5044 23.6635 16.8429C23.7735 17.1814 23.6953 17.5528 23.4581 17.8182L21.1839 20.3635L21.5277 23.7594C21.5636 24.1135 21.4085 24.46 21.1206 24.6692C20.8327 24.8783 20.4552 24.9187 20.1296 24.7752L17.0061 23.3988L13.8826 24.7752C13.5569 24.9187 13.1795 24.8783 12.8916 24.6692C12.6037 24.46 12.4486 24.1135 12.4845 23.7594L12.8283 20.3635L10.5541 17.8182C10.3169 17.5528 10.2387 17.1814 10.3487 16.8429C10.4587 16.5044 10.7403 16.2499 11.0881 16.1746L14.4241 15.4522L16.142 12.5027C16.3211 12.1952 16.6502 12.006 17.0061 12.006ZM17.0061 14.9929L15.9305 16.8396C15.7892 17.0822 15.5524 17.2542 15.278 17.3136L13.1894 17.7659L14.6133 19.3595C14.8004 19.5689 14.8908 19.8472 14.8625 20.1265L14.6472 22.2527L16.6028 21.3909C16.8598 21.2777 17.1524 21.2777 17.4093 21.3909L19.3649 22.2527L19.1497 20.1265C19.1214 19.8472 19.2118 19.5689 19.3989 19.3595L20.8228 17.7659L18.7341 17.3136C18.4597 17.2542 18.223 17.0822 18.0817 16.8396L17.0061 14.9929Z" fill="black"/>
<path fill-rule="evenodd" clip-rule="evenodd" d="M31.8702 12.5027C31.6911 12.1952 31.362 12.006 31.0061 12.006C30.6502 12.006 30.3211 12.1952 30.142 12.5027L28.4241 15.4522L25.0881 16.1746C24.7403 16.2499 24.4587 16.5044 24.3487 16.8429C24.2387 17.1814 24.3169 17.5528 24.5541 17.8182L26.8283 20.3635L26.4845 23.7594C26.4486 24.1135 26.6037 24.46 26.8916 24.6692C27.1795 24.8783 27.5569 24.9187 27.8826 24.7752L31.0061 23.3988L34.1296 24.7752C34.4552 24.9187 34.8327 24.8783 35.1206 24.6692C35.4085 24.46 35.5636 24.1135 35.5277 23.7594L35.1839 20.3635L37.4581 17.8182C37.6953 17.5528 37.7735 17.1814 37.6635 16.8429C37.5535 16.5044 37.2719 16.2499 36.9241 16.1746L33.5881 15.4522L31.8702 12.5027ZM29.9305 16.8396L31.0061 14.9929L32.0817 16.8396C32.223 17.0822 32.4597 17.2542 32.7341 17.3136L34.8228 17.7659L33.3989 19.3595C33.2118 19.5689 33.1214 19.8472 33.1497 20.1265L33.3649 22.2527L31.4093 21.3909C31.1524 21.2777 30.8598 21.2777 30.6028 21.3909L28.6472 22.2527L28.8625 20.1265C28.8908 19.8472 28.8004 19.5689 28.6133 19.3595L27.1894 17.7659L29.278 17.3136C29.5524 17.2542 29.7892 17.0822 29.9305 16.8396Z" fill="black"/>
<path fill-rule="evenodd" clip-rule="evenodd" d="M6.00609 24.006C6.00609 14.0649 14.065 6.00603 24.0061 6.00603C33.9472 6.00603 42.0061 14.0649 42.0061 24.006C42.0061 33.9472 33.9472 42.006 24.0061 42.006C14.065 42.006 6.00609 33.9472 6.00609 24.006ZM24.0061 8.00603C15.1695 8.00603 8.00609 15.1695 8.00609 24.006C8.00609 32.8426 15.1695 40.006 24.0061 40.006C32.8426 40.006 40.0061 32.8426 40.0061 24.006C40.0061 15.1695 32.8426 8.00603 24.0061 8.00603Z" fill="black"/>
<path d="M2.60555 10.1238C2.85254 9.62978 3.45321 9.42956 3.94719 9.67655L6.77562 11.0908C7.26959 11.3377 7.46982 11.9384 7.22283 12.4324C6.97584 12.9264 6.37517 13.1266 5.88119 12.8796L3.05276 11.4654C2.55878 11.2184 2.35856 10.6177 2.60555 10.1238Z" fill="black"/>
<path d="M43.8051 5.62125C44.1956 5.23072 44.1956 4.59756 43.8051 4.20704C43.4146 3.81651 42.7814 3.81651 42.3909 4.20704L38.1482 8.44968C37.7577 8.8402 37.7577 9.47337 38.1482 9.86389C38.5388 10.2544 39.1719 10.2544 39.5624 9.86389L43.8051 5.62125Z" fill="black"/>
<path d="M37.8883 2.60555C38.3823 2.85254 38.5825 3.45321 38.3355 3.94719L36.9213 6.77562C36.6743 7.26959 36.0737 7.46982 35.5797 7.22283C35.0857 6.97584 34.8855 6.37517 35.1325 5.88119L36.5467 3.05276C36.7937 2.55878 37.3944 2.35856 37.8883 2.60555Z" fill="black"/>
<path d="M44.065 9.67655C44.559 9.42956 45.1596 9.62978 45.4066 10.1238C45.6536 10.6177 45.4534 11.2184 44.9594 11.4654L42.131 12.8796C41.637 13.1266 41.0363 12.9264 40.7894 12.4324C40.5424 11.9384 40.7426 11.3377 41.2366 11.0908L44.065 9.67655Z" fill="black"/>
</svg>
