<svg width="48" height="48" viewBox="0 0 48 48" fill="none" xmlns="http://www.w3.org/2000/svg">
<path fill-rule="evenodd" clip-rule="evenodd" d="M34.7388 23.3986L33.7035 19.5348L34.6694 19.276C36.2698 18.8472 37.2195 17.2022 36.7907 15.6018L36.2731 13.6699C35.8443 12.0695 34.1992 11.1198 32.5989 11.5486L31.6329 11.8074L30.5977 7.94377C30.1688 6.34337 28.5238 5.39362 26.9234 5.82245C25.7559 6.13528 24.9347 7.09536 24.7423 8.21318L24.5336 8.39829C22.203 10.4649 19.4259 11.9638 16.4199 12.7779L8.64016 14.8625C7.37846 15.2006 6.52115 16.2945 6.42491 17.5266L6.26002 17.5708C5.19309 17.8567 4.55992 18.9533 4.84581 20.0203C5.13169 21.0872 6.22836 21.7204 7.2953 21.4345L8.06969 24.3246L8.07176 24.3324L8.07389 24.3402L8.58939 26.2641C9.01822 27.8645 10.6632 28.8143 12.2636 28.3855L15.6283 40.9425C15.7712 41.476 16.3196 41.7926 16.853 41.6496L18.0753 41.3221C19.5174 40.9357 20.4559 39.5477 20.2773 38.0655L18.8969 26.6081L19.991 26.3149C23.0172 25.504 26.1906 25.409 29.2598 26.0371L29.5332 26.093C30.2587 26.9648 31.45 27.3856 32.6174 27.0728C34.2178 26.644 35.1676 24.999 34.7388 23.3986ZM27.4411 7.7543C26.9076 7.89724 26.591 8.44558 26.734 8.97905L30.8751 24.4339C31.018 24.9673 31.5663 25.2839 32.0998 25.141C32.6333 24.998 32.9499 24.4497 32.8069 23.9162L28.6658 8.46141C28.5229 7.92794 27.9745 7.61136 27.4411 7.7543ZM10.2625 24.7807L10.5212 25.7465C10.6642 26.28 11.2125 26.5965 11.746 26.4536L18.5075 24.6419L15.9193 14.9826L9.1578 16.7943C8.62539 16.937 8.30901 17.4834 8.44984 18.0159L8.45069 18.0191L8.70953 18.9851L11.6073 18.2086C12.1408 18.0657 12.6891 18.3823 12.832 18.9157C12.975 19.4492 12.6584 19.9975 12.1249 20.1405L9.22717 20.9169L9.74482 22.8488L12.6426 22.0724C13.176 21.9294 13.7244 22.246 13.8673 22.7795C14.0103 23.313 13.6937 23.8613 13.1602 24.0042L10.2625 24.7807ZM33.1858 17.603L32.1506 13.7393L33.1165 13.4804C33.65 13.3375 34.1983 13.6541 34.3412 14.1876L34.8589 16.1194C35.0018 16.6529 34.6852 17.2012 34.1518 17.3441L33.1858 17.603ZM20.4452 24.1461C23.1442 23.5519 25.9306 23.4673 28.6606 23.8967L25.0847 10.5515C22.9352 12.2884 20.4798 13.6084 17.8453 14.4433L20.4452 24.1461ZM14.1955 27.8679L17.3013 39.459L17.5577 39.3903C18.0384 39.2615 18.3512 38.7988 18.2917 38.3047L16.9455 27.131L14.1955 27.8679Z" fill="black"/>
<path d="M39.1709 12.8936C38.6374 13.0365 38.3208 13.5848 38.4638 14.1183C38.6067 14.6518 39.155 14.9683 39.6885 14.8254L43.5522 13.7901C44.0857 13.6472 44.4023 13.0989 44.2593 12.5654C44.1164 12.0319 43.568 11.7153 43.0346 11.8583L39.1709 12.8936Z" fill="black"/>
<path d="M38.1657 17.5254C37.9323 18.0259 38.1488 18.6209 38.6494 18.8543L41.3683 20.1221C41.8688 20.3555 42.4638 20.139 42.6972 19.6385C42.9306 19.1379 42.7141 18.5429 42.2135 18.3095L39.4946 17.0417C38.9941 16.8083 38.3991 17.0248 38.1657 17.5254Z" fill="black"/>
<path d="M39.6155 8.61362C39.9322 8.16121 39.8223 7.53766 39.3699 7.22089C38.9175 6.90411 38.2939 7.01406 37.9772 7.46646L36.2564 9.92392C35.9396 10.3763 36.0496 10.9999 36.502 11.3166C36.9544 11.6334 37.578 11.5235 37.8947 11.0711L39.6155 8.61362Z" fill="black"/>
</svg>
