<svg width="48" height="48" viewBox="0 0 48 48" fill="none" xmlns="http://www.w3.org/2000/svg">
<path d="M25 5C25 4.44772 24.5523 4 24 4C23.4477 4 23 4.44772 23 5V7C23 7.55228 23.4477 8 24 8C24.5523 8 25 7.55228 25 7V5Z" fill="black"/>
<path fill-rule="evenodd" clip-rule="evenodd" d="M31 37C31.5523 37 32 36.5523 32 36C32 35.4477 31.5523 35 31 35V31.7478C34.0263 29.5709 36 26.0162 36 22C36 15.3726 30.6274 10 24 10C17.3726 10 12 15.3726 12 22C12 26.0162 13.9737 29.5709 17 31.7478V35C16.4477 35 16 35.4477 16 36C16 36.5523 16.4477 37 17 37V39C17 40.1046 17.8954 41 19 41H20V43C20 43.5523 20.4477 44 21 44C21.5523 44 22 43.5523 22 43V41H26V43C26 43.5523 26.4477 44 27 44C27.5523 44 28 43.5523 28 43V41H29C30.1046 41 31 40.1046 31 39V37ZM24 12C18.4772 12 14 16.4772 14 22C14 25.5095 15.8071 28.5975 18.5462 30.3834C18.8293 30.568 19 30.8831 19 31.2211V35H23L23 26.5L20.7924 24.8443C19.5706 23.928 19.4437 22.1421 20.5236 21.0622C21.2874 20.2984 22.4542 20.1091 23.4203 20.5922L23.6281 20.696C23.8622 20.8131 24.1378 20.8131 24.372 20.696L24.5797 20.5922C25.5458 20.1091 26.7126 20.2984 27.4764 21.0622C28.5563 22.1421 28.4294 23.928 27.2076 24.8443L25 26.5L25 35H29V31.2211C29 30.8831 29.1707 30.568 29.4538 30.3834C32.1929 28.5975 34 25.5095 34 22C34 16.4772 29.5228 12 24 12ZM29 39H19V37H29V39ZM25.4741 22.381C25.6702 22.2829 25.9071 22.3214 26.0622 22.4764C26.2814 22.6957 26.2557 23.0583 26.0076 23.2443L24 24.75L21.9924 23.2443C21.7443 23.0583 21.7186 22.6957 21.9378 22.4764C22.0929 22.3214 22.3298 22.2829 22.5259 22.381L22.7336 22.4849C23.5308 22.8835 24.4692 22.8835 25.2664 22.4849L25.4741 22.381Z" fill="black"/>
<path d="M32.75 6.34448C33.2283 6.62062 33.3922 7.23222 33.116 7.71051L32.116 9.44256C31.8399 9.92085 31.2283 10.0847 30.75 9.80858C30.2717 9.53244 30.1078 8.92085 30.384 8.44256L31.384 6.71051C31.6601 6.23222 32.2717 6.06834 32.75 6.34448Z" fill="black"/>
<path d="M14.884 7.71051C14.6078 7.23222 14.7717 6.62062 15.25 6.34448C15.7283 6.06834 16.3399 6.23222 16.616 6.71051L17.616 8.44256C17.8922 8.92085 17.7283 9.53244 17.25 9.80858C16.7717 10.0847 16.1601 9.92085 15.884 9.44256L14.884 7.71051Z" fill="black"/>
<path d="M8.84454 12.7501C8.5684 13.2284 8.73228 13.8399 9.21057 14.1161L10.9426 15.1161C11.4209 15.3922 12.0325 15.2284 12.3086 14.7501C12.5848 14.2718 12.4209 13.6602 11.9426 13.384L10.2106 12.384C9.73228 12.1079 9.12069 12.2718 8.84454 12.7501Z" fill="black"/>
<path d="M36.0574 29.6161C35.5791 29.3399 35.4152 28.7284 35.6913 28.2501C35.9675 27.7718 36.5791 27.6079 37.0574 27.884L38.7894 28.884C39.2677 29.1602 39.4316 29.7718 39.1554 30.2501C38.8793 30.7284 38.2677 30.8922 37.7894 30.6161L36.0574 29.6161Z" fill="black"/>
<path d="M39.1555 12.7501C39.4316 13.2284 39.2677 13.8399 38.7894 14.1161L37.0574 15.1161C36.5791 15.3922 35.9675 15.2284 35.6914 14.7501C35.4152 14.2718 35.5791 13.6602 36.0574 13.384L37.7894 12.384C38.2677 12.1079 38.8793 12.2718 39.1555 12.7501Z" fill="black"/>
<path d="M11.9426 29.6161C12.4209 29.3399 12.5848 28.7284 12.3087 28.2501C12.0325 27.7718 11.4209 27.6079 10.9426 27.884L9.21058 28.884C8.73229 29.1602 8.56841 29.7718 8.84455 30.2501C9.1207 30.7284 9.73229 30.8922 10.2106 30.6161L11.9426 29.6161Z" fill="black"/>
<path d="M41.5 21.5C41.5 22.0523 41.0523 22.5 40.5 22.5H38.5C37.9477 22.5 37.5 22.0523 37.5 21.5C37.5 20.9477 37.9477 20.5 38.5 20.5H40.5C41.0523 20.5 41.5 20.9477 41.5 21.5Z" fill="black"/>
<path d="M9.5 22.5C10.0523 22.5 10.5 22.0523 10.5 21.5C10.5 20.9477 10.0523 20.5 9.5 20.5H7.5C6.94772 20.5 6.5 20.9477 6.5 21.5C6.5 22.0523 6.94772 22.5 7.5 22.5H9.5Z" fill="black"/>
</svg>
