<svg width="24" height="24" viewBox="0 0 24 24" fill="none" xmlns="http://www.w3.org/2000/svg">
<path d="M11.9999 15.121C11.8686 15.1212 11.7385 15.0954 11.6172 15.0451C11.4958 14.9948 11.3856 14.921 11.2929 14.828L7.05018 10.5859C6.86267 10.3983 6.75732 10.144 6.75732 9.87883C6.75733 9.61364 6.86267 9.35931 7.05019 9.1718C7.23771 8.98428 7.49203 8.87893 7.75722 8.87894C8.02241 8.87894 8.27674 8.98428 8.46425 9.1718L11.9999 12.7069L15.5355 9.17177C15.7231 8.98425 15.9774 8.87891 16.2426 8.87891C16.5078 8.87891 16.7621 8.98425 16.9496 9.17177C17.1371 9.35928 17.2425 9.61361 17.2425 9.8788C17.2425 10.144 17.1371 10.3983 16.9496 10.5858L12.7069 14.828C12.6142 14.921 12.504 14.9948 12.3826 15.0451C12.2613 15.0954 12.1312 15.1212 11.9999 15.121Z" fill="#6563FF"/>
</svg>
