<svg width="24" height="24" viewBox="0 0 24 24" fill="none" xmlns="http://www.w3.org/2000/svg">
<path d="M15.707 13.293C15.6141 13.2001 15.5039 13.1264 15.3826 13.0762C15.2613 13.0259 15.1312 13 14.9999 13C14.8686 13 14.7386 13.0259 14.6173 13.0762C14.4959 13.1264 14.3857 13.2001 14.2929 13.293L13 14.5859V3C13 2.73478 12.8946 2.48043 12.7071 2.29289C12.5195 2.10536 12.2652 2 12 2C11.7347 2 11.4804 2.10536 11.2928 2.29289C11.1053 2.48043 11 2.73478 11 3V14.5859L9.70696 13.293C9.51887 13.1083 9.26545 13.0053 9.00183 13.0065C8.73822 13.0077 8.48574 13.113 8.29933 13.2994C8.11292 13.4858 8.00767 13.7383 8.00648 14.0019C8.00529 14.2655 8.10825 14.5189 8.29296 14.707L11.293 17.707C11.3858 17.7999 11.496 17.8736 11.6173 17.9238C11.7386 17.9741 11.8687 18 12 18C12.1313 18 12.2613 17.9741 12.3826 17.9238C12.504 17.8736 12.6142 17.7999 12.707 17.707L15.707 14.707C15.7999 14.6142 15.8736 14.5039 15.9238 14.3826C15.9741 14.2613 15.9999 14.1313 15.9999 14C15.9999 13.8687 15.974 13.7387 15.9238 13.6173C15.8735 13.496 15.7998 13.3858 15.707 13.293Z" fill="#6563FF"/>
<path d="M18 9H13V14.5859L14.293 13.2929C14.4809 13.1074 14.7346 13.0037 14.9987 13.0045C15.2628 13.0054 15.5159 13.1107 15.7026 13.2974C15.8893 13.4842 15.9946 13.7372 15.9954 14.0013C15.9963 14.2654 15.8926 14.5191 15.707 14.707L12.707 17.707C12.6142 17.7999 12.5039 17.8736 12.3826 17.9238C12.2613 17.9741 12.1313 18 12 18C11.8687 18 11.7386 17.9741 11.6173 17.9238C11.496 17.8736 11.3858 17.7999 11.2929 17.707L8.29294 14.707C8.10738 14.5191 8.0037 14.2654 8.00453 14.0013C8.00537 13.7372 8.11066 13.4841 8.29741 13.2974C8.48415 13.1107 8.7372 13.0054 9.00129 13.0046C9.26539 13.0037 9.51909 13.1074 9.707 13.293L11 14.5859V9H6C5.20462 9.00087 4.44206 9.31722 3.87964 9.87964C3.31722 10.4421 3.00087 11.2046 3 12V19C3.00087 19.7954 3.31722 20.5579 3.87964 21.1204C4.44206 21.6828 5.20462 21.9991 6 22H18C18.7954 21.9991 19.5579 21.6828 20.1204 21.1204C20.6828 20.5579 20.9991 19.7954 21 19V12C20.9991 11.2046 20.6828 10.4421 20.1204 9.87964C19.5579 9.31722 18.7954 9.00087 18 9Z" fill="#A2A1FF"/>
</svg>
