<svg width="24" height="24" viewBox="0 0 24 24" fill="none" xmlns="http://www.w3.org/2000/svg">
<path d="M16.5 20.794H7.5C7.32443 20.7941 7.15194 20.7479 6.99988 20.6601C6.84782 20.5723 6.72156 20.4461 6.63379 20.294L2.13379 12.5C2.04622 12.3479 2.00012 12.1755 2.00012 12C2.00012 11.8245 2.04622 11.6521 2.13379 11.5L6.63379 3.70605C6.72156 3.554 6.84782 3.42773 6.99988 3.33996C7.15194 3.25219 7.32443 3.20601 7.5 3.20605H16.5C16.6756 3.20601 16.8481 3.25219 17.0001 3.33997C17.1522 3.42774 17.2784 3.554 17.3662 3.70605L21.8662 11.5001C21.9538 11.6521 21.9999 11.8246 21.9999 12.0001C21.9999 12.1756 21.9538 12.348 21.8662 12.5001L17.3662 20.294C17.2784 20.4461 17.1522 20.5723 17.0001 20.6601C16.8481 20.7479 16.6756 20.7941 16.5 20.794Z" fill="#6563FF"/>
</svg>
