<svg width="24" height="24" viewBox="0 0 24 24" fill="none" xmlns="http://www.w3.org/2000/svg">
<path d="M14.1211 17.2431C13.9898 17.2432 13.8597 17.2174 13.7383 17.1671C13.617 17.1169 13.5068 17.0431 13.4141 16.9501L9.17188 12.7074C9.079 12.6146 9.00532 12.5044 8.95505 12.383C8.90478 12.2617 8.87891 12.1317 8.87891 12.0004C8.87891 11.8691 8.90478 11.739 8.95505 11.6177C9.00532 11.4964 9.079 11.3862 9.17188 11.2934L13.4141 7.05067C13.6016 6.86316 13.8559 6.75781 14.1211 6.75781C14.3863 6.75781 14.6406 6.86316 14.8281 7.05068C15.0156 7.23819 15.121 7.49252 15.121 7.75771C15.121 8.0229 15.0156 8.27723 14.8281 8.46474L11.293 12.0004L14.8281 15.5361C14.968 15.6759 15.0632 15.8541 15.1017 16.048C15.1403 16.242 15.1205 16.443 15.0448 16.6257C14.9692 16.8084 14.841 16.9646 14.6766 17.0745C14.5122 17.1843 14.3189 17.243 14.1212 17.2431L14.1211 17.2431Z" fill="#6563FF"/>
</svg>
