<svg width="24" height="24" viewBox="0 0 24 24" fill="none" xmlns="http://www.w3.org/2000/svg">
<path d="M10.3799 13.0802C10.2597 13.0289 10.1306 13.0018 9.99994 13.0002H5.99994C5.73472 13.0002 5.48037 13.1055 5.29283 13.2931C5.1053 13.4806 4.99994 13.735 4.99994 14.0002C4.99994 14.2654 5.1053 14.5198 5.29283 14.7073C5.48037 14.8948 5.73472 15.0002 5.99994 15.0002H7.58994L2.28994 20.2902C2.19621 20.3831 2.12182 20.4937 2.07105 20.6156C2.02028 20.7375 1.99414 20.8682 1.99414 21.0002C1.99414 21.1322 2.02028 21.2629 2.07105 21.3848C2.12182 21.5066 2.19621 21.6172 2.28994 21.7102C2.3829 21.8039 2.4935 21.8783 2.61536 21.9291C2.73722 21.9798 2.86793 22.006 2.99994 22.006C3.13195 22.006 3.26266 21.9798 3.38452 21.9291C3.50637 21.8783 3.61698 21.8039 3.70994 21.7102L8.99994 16.4102V18.0002C8.99994 18.2654 9.1053 18.5198 9.29283 18.7073C9.48037 18.8948 9.73472 19.0002 9.99994 19.0002C10.2652 19.0002 10.5195 18.8948 10.707 18.7073C10.8946 18.5198 10.9999 18.2654 10.9999 18.0002V14.0002C10.9984 13.8695 10.9712 13.7404 10.9199 13.6202C10.8185 13.3758 10.6243 13.1817 10.3799 13.0802ZM9.99994 5.00019C9.73472 5.00019 9.48037 5.10554 9.29283 5.29308C9.1053 5.48062 8.99994 5.73497 8.99994 6.00019V7.59019L3.70994 2.29019C3.6167 2.19695 3.50601 2.12299 3.38419 2.07253C3.26237 2.02207 3.1318 1.99609 2.99994 1.99609C2.86808 1.99609 2.73751 2.02207 2.61569 2.07253C2.49387 2.12299 2.38318 2.19695 2.28994 2.29019C2.10164 2.47849 1.99585 2.73388 1.99585 3.00019C1.99585 3.26649 2.10164 3.52188 2.28994 3.71019L7.58994 9.00019H5.99994C5.73472 9.00019 5.48037 9.10554 5.29283 9.29308C5.1053 9.48062 4.99994 9.73497 4.99994 10.0002C4.99994 10.2654 5.1053 10.5198 5.29283 10.7073C5.48037 10.8948 5.73472 11.0002 5.99994 11.0002H9.99994C10.1306 10.9986 10.2597 10.9714 10.3799 10.9202C10.6243 10.8187 10.8185 10.6245 10.9199 10.3802C10.9712 10.26 10.9984 10.1309 10.9999 10.0002V6.00019C10.9999 5.73497 10.8946 5.48062 10.707 5.29308C10.5195 5.10554 10.2652 5.00019 9.99994 5.00019ZM13.6199 10.9202C13.7402 10.9714 13.8693 10.9986 13.9999 11.0002H17.9999C18.2652 11.0002 18.5195 10.8948 18.707 10.7073C18.8946 10.5198 18.9999 10.2654 18.9999 10.0002C18.9999 9.73497 18.8946 9.48062 18.707 9.29308C18.5195 9.10554 18.2652 9.00019 17.9999 9.00019H16.4099L21.7099 3.71019C21.8982 3.52188 22.004 3.26649 22.004 3.00019C22.004 2.73388 21.8982 2.47849 21.7099 2.29019C21.5216 2.10188 21.2662 1.99609 20.9999 1.99609C20.7336 1.99609 20.4782 2.10188 20.2899 2.29019L14.9999 7.59019V6.00019C14.9999 5.73497 14.8946 5.48062 14.707 5.29308C14.5195 5.10554 14.2652 5.00019 13.9999 5.00019C13.7347 5.00019 13.4804 5.10554 13.2928 5.29308C13.1053 5.48062 12.9999 5.73497 12.9999 6.00019V10.0002C13.0015 10.1309 13.0287 10.26 13.0799 10.3802C13.1814 10.6245 13.3756 10.8187 13.6199 10.9202ZM16.4099 15.0002H17.9999C18.2652 15.0002 18.5195 14.8948 18.707 14.7073C18.8946 14.5198 18.9999 14.2654 18.9999 14.0002C18.9999 13.735 18.8946 13.4806 18.707 13.2931C18.5195 13.1055 18.2652 13.0002 17.9999 13.0002H13.9999C13.8693 13.0018 13.7402 13.0289 13.6199 13.0802C13.3756 13.1817 13.1814 13.3758 13.0799 13.6202C13.0287 13.7404 13.0015 13.8695 12.9999 14.0002V18.0002C12.9999 18.2654 13.1053 18.5198 13.2928 18.7073C13.4804 18.8948 13.7347 19.0002 13.9999 19.0002C14.2652 19.0002 14.5195 18.8948 14.707 18.7073C14.8946 18.5198 14.9999 18.2654 14.9999 18.0002V16.4102L20.2899 21.7102C20.3829 21.8039 20.4935 21.8783 20.6154 21.9291C20.7372 21.9798 20.8679 22.006 20.9999 22.006C21.132 22.006 21.2627 21.9798 21.3845 21.9291C21.5064 21.8783 21.617 21.8039 21.7099 21.7102C21.8037 21.6172 21.8781 21.5066 21.9288 21.3848C21.9796 21.2629 22.0057 21.1322 22.0057 21.0002C22.0057 20.8682 21.9796 20.7375 21.9288 20.6156C21.8781 20.4937 21.8037 20.3831 21.7099 20.2902L16.4099 15.0002Z" fill="black"/>
</svg>
