<svg width="24" height="24" viewBox="0 0 24 24" fill="none" xmlns="http://www.w3.org/2000/svg">
<path d="M11.97 20.9697C16.9405 20.9697 20.97 16.9403 20.97 11.9697C20.97 6.99916 16.9405 2.96973 11.97 2.96973C6.99941 2.96973 2.96997 6.99916 2.96997 11.9697C2.96997 16.9403 6.99941 20.9697 11.97 20.9697Z" fill="#A2A1FF"/>
<path d="M2.00004 12.0003C1.98671 10.2368 2.44966 8.5025 3.34004 6.98028C4.21228 5.46805 5.46781 4.21252 6.98004 3.34028C8.50225 2.4499 10.2366 1.98695 12 2.00028C13.7635 1.98694 15.4978 2.44989 17.02 3.34028C18.5323 4.21251 19.7878 5.46804 20.66 6.98028C21.5504 8.50249 22.0134 10.2368 22 12.0003C22.0134 13.7637 21.5504 15.4981 20.66 17.0203C19.7878 18.5325 18.5323 19.788 17.02 20.6603C15.4978 21.5507 13.7635 22.0136 12 22.0003C10.2366 22.0136 8.50225 21.5507 6.98004 20.6603C5.46781 19.788 4.21228 18.5325 3.34004 17.0203C2.44966 15.4981 1.98671 13.7637 2.00004 12.0003ZM3.66004 12.0003C3.64187 14.0328 4.3919 15.9971 5.76004 17.5003C6.515 16.1096 7.55012 14.8906 8.80004 13.9203C9.96796 12.9001 11.3583 12.1672 12.86 11.7803C12.66 11.3136 12.4667 10.8936 12.28 10.5203C9.87215 11.2708 7.3621 11.6419 4.84004 11.6203C4.32004 11.6203 3.93337 11.6136 3.68004 11.6003C3.68004 11.6536 3.67671 11.7203 3.67004 11.8003C3.66337 11.8803 3.66004 11.9469 3.66004 12.0003ZM3.92004 9.94028C4.21337 9.96695 4.64671 9.98028 5.22004 9.98028C7.36601 9.99182 9.50207 9.6886 11.56 9.08028C10.6606 7.43274 9.53654 5.91824 8.22004 4.58028C7.16592 5.11426 6.24106 5.87189 5.51004 6.80028C4.76774 7.72517 4.22624 8.79455 3.92004 9.94028ZM6.90004 18.5803C9.17694 20.3793 12.2371 20.836 14.94 19.7803C14.6782 17.5206 14.1547 15.2991 13.38 13.1603C11.9936 13.5119 10.7178 14.2065 9.67004 15.1803C8.53436 16.1227 7.59345 17.2776 6.90004 18.5803ZM9.96004 3.94028C11.2418 5.30351 12.338 6.83004 13.22 8.48028C14.812 7.87967 16.2235 6.88127 17.32 5.58028C15.8347 4.3224 13.9464 3.6409 12 3.66028C11.3105 3.66158 10.6244 3.75576 9.96004 3.94028ZM13.94 9.90028C14.14 10.327 14.3667 10.867 14.62 11.5203C15.6067 11.427 16.68 11.3803 17.84 11.3803C18.6667 11.3803 19.4867 11.4003 20.3 11.4403C20.2042 9.65363 19.5144 7.95018 18.34 6.60028C17.2147 8.09394 15.6891 9.23814 13.94 9.90028ZM15.12 12.9203C15.7994 14.8908 16.2621 16.9295 16.5 19.0003C17.5441 18.3297 18.4255 17.4346 19.08 16.3803C19.7396 15.334 20.1502 14.1503 20.28 12.9203C19.3067 12.8536 18.42 12.8203 17.62 12.8203C16.8867 12.8203 16.0534 12.8536 15.12 12.9203Z" fill="#6563FF"/>
</svg>
