<svg width="24" height="24" viewBox="0 0 24 24" fill="none" xmlns="http://www.w3.org/2000/svg">
<path d="M12 2.59961C10.1408 2.59961 8.32344 3.15091 6.77762 4.18379C5.2318 5.21668 4.02698 6.68476 3.31551 8.40239C2.60405 10.12 2.4179 12.01 2.7806 13.8335C3.1433 15.6569 4.03856 17.3318 5.35318 18.6464C6.66779 19.961 8.34271 20.8563 10.1661 21.219C11.9896 21.5817 13.8796 21.3955 15.5972 20.6841C17.3148 19.9726 18.7829 18.7678 19.8158 17.222C20.8487 15.6761 21.4 13.8588 21.4 11.9996C21.4 9.50657 20.4096 7.11565 18.6468 5.35281C16.8839 3.58996 14.493 2.59961 12 2.59961Z" fill="#C1C0FF"/>
<path d="M12.1465 12.7286L9.64575 19.9938C11.3246 20.4882 13.1165 20.4417 14.7675 19.8609C14.7443 19.8244 14.7243 19.786 14.7078 19.746L12.1465 12.7286ZM3.66675 11.9997C3.66648 13.5647 4.10687 15.0981 4.9375 16.4244C5.76814 17.7508 6.95546 18.8164 8.36353 19.4994L4.38818 8.6084C3.91165 9.67544 3.66581 10.8311 3.66675 11.9997Z" fill="#6563FF"/>
<path d="M17.6257 11.5798C17.6146 10.7648 17.3767 9.96902 16.9387 9.28162C16.4908 8.71807 16.2075 8.04162 16.1201 7.32709C16.1104 6.94563 16.2522 6.57586 16.5145 6.29869C16.7768 6.02152 17.1381 5.85953 17.5195 5.84815C17.5565 5.84815 17.5915 5.8526 17.6275 5.85486C16.7378 5.0399 15.6817 4.4279 14.5323 4.06118C13.3828 3.69445 12.1675 3.58175 10.9702 3.73087C9.77295 3.87998 8.62236 4.28736 7.598 4.92482C6.57364 5.56229 5.69995 6.41463 5.03735 7.42292C5.23291 7.42914 5.41724 7.43305 5.57361 7.43305C6.44507 7.43305 7.79468 7.32705 7.79468 7.32705C7.88473 7.32183 7.97323 7.35215 8.04117 7.41147C8.10912 7.4708 8.15108 7.55441 8.15805 7.64434C8.16502 7.73427 8.13643 7.82334 8.07844 7.89243C8.02045 7.96151 7.93768 8.0051 7.8479 8.01382C7.8479 8.01382 7.39624 8.06668 6.89429 8.09298L9.92871 17.1195L11.7527 11.6502L10.4544 8.09302C10.0054 8.06672 9.58035 8.01386 9.58035 8.01386C9.49056 8.00518 9.40776 7.96163 9.34973 7.89257C9.2917 7.8235 9.26308 7.73442 9.27002 7.64448C9.27696 7.55454 9.31891 7.47091 9.38685 7.41156C9.45479 7.35221 9.54329 7.32188 9.63335 7.32709C9.63335 7.32709 11.0092 7.43309 11.8279 7.43309C12.6994 7.43309 14.0492 7.32709 14.0492 7.32709C14.1393 7.32181 14.2279 7.3521 14.2959 7.41144C14.3639 7.47079 14.4059 7.55444 14.4128 7.64441C14.4198 7.73439 14.3911 7.8235 14.3331 7.89259C14.275 7.96168 14.1922 8.00522 14.1023 8.01386C14.1023 8.01386 13.6503 8.06672 13.1487 8.09302L16.1602 17.0508L17.0198 14.3267C17.3555 13.4458 17.5597 12.5202 17.6257 11.5798Z" fill="#6563FF"/>
<path d="M12 2C10.0222 2 8.08879 2.58649 6.4443 3.6853C4.79981 4.78412 3.51809 6.3459 2.76121 8.17317C2.00433 10.0004 1.8063 12.0111 2.19215 13.9509C2.578 15.8907 3.53041 17.6725 4.92894 19.0711C6.32746 20.4696 8.10929 21.422 10.0491 21.8079C11.9889 22.1937 13.9996 21.9957 15.8268 21.2388C17.6541 20.4819 19.2159 19.2002 20.3147 17.5557C21.4135 15.9112 22 13.9778 22 12C22 10.6868 21.7413 9.38642 21.2388 8.17317C20.7363 6.95991 19.9997 5.85752 19.0711 4.92893C18.1425 4.00035 17.0401 3.26375 15.8268 2.7612C14.6136 2.25866 13.3132 2 12 2ZM19.7949 17.2552C18.7747 18.7668 17.3379 19.95 15.6587 20.6615C14.2183 21.2711 12.6485 21.5111 11.0917 21.3598C9.53501 21.2085 8.04077 20.6706 6.74475 19.795C5.2333 18.7745 4.05009 17.3378 3.33838 15.6587C2.72868 14.2183 2.48859 12.6484 2.63996 11.0917C2.79132 9.53495 3.32933 8.0407 4.20508 6.74477C5.22532 5.23315 6.66211 4.0499 8.34131 3.33844C9.7817 2.72886 11.3516 2.48884 12.9083 2.64017C14.465 2.79149 15.9592 3.32938 17.2553 4.20496C18.7667 5.22542 19.9499 6.66217 20.6616 8.34125C21.2713 9.78161 21.5114 11.3515 21.3601 12.9083C21.2087 14.465 20.6707 15.9593 19.7949 17.2552Z" fill="#6563FF"/>
<path d="M19.3688 8.85871C19.3543 9.88547 19.139 10.8995 18.7349 11.8435L16.1897 19.2023C18.0669 18.1103 19.4438 16.3287 20.0271 14.2367C20.6104 12.1448 20.3541 9.90776 19.3127 8.00195C19.3506 8.28596 19.3693 8.57219 19.3688 8.85871Z" fill="#6563FF"/>
</svg>
