<svg width="24" height="24" viewBox="0 0 24 24" fill="none" xmlns="http://www.w3.org/2000/svg">
<path d="M8.88185 19.94C8.80476 20.4257 8.38598 20.7833 7.89421 20.7833H4.06246C3.21572 20.7851 2.52783 20.1001 2.526 19.2534C2.52582 19.1679 2.53279 19.0825 2.54685 18.9981L5.13669 2.5918C5.28394 1.67638 6.07278 1.00247 6.99997 1H13.2138C15.7744 1 17.622 1.62012 18.706 2.84277C19.7527 4.04862 20.1547 5.68467 19.7861 7.23828C19.7646 7.37305 19.7431 7.50879 19.7109 7.65628C18.8877 11.8741 16.0556 14.1133 11.5254 14.1133H9.80661L8.88185 19.94ZM4.52243 19.3116L4.52048 19.3184L4.52243 19.3116ZM7.11325 2.89657L7.11225 2.89857L7.11325 2.89657Z" fill="#A2A1FF"/>
<path d="M20.4365 7.10468C20.2704 6.91871 20.0878 6.74891 19.8915 6.59668C19.8696 6.81128 19.8366 7.02564 19.7861 7.23846C19.7647 7.37323 19.7431 7.50897 19.7109 7.65643C18.8877 11.8742 16.0557 14.1135 11.5254 14.1135H9.80664L8.8819 19.9402C8.80481 20.4259 8.38599 20.7835 7.89423 20.7835H6.72656L6.64453 21.3039C6.63257 21.3796 6.62652 21.4561 6.62646 21.5328C6.62616 22.3429 7.28265 22.9999 8.09277 23.0002H11.3272C12.1928 23.0075 12.9353 22.3843 13.0782 21.5305L13.7188 17.4992L13.7296 17.4446H14.0284C18.0606 17.4446 20.5792 15.4514 21.3135 11.6818C21.7679 10.1036 21.4421 8.40327 20.4365 7.10468Z" fill="#6563FF"/>
</svg>
