<svg width="24" height="24" viewBox="0 0 24 24" fill="none" xmlns="http://www.w3.org/2000/svg">
<path d="M9.17177 18.6571C8.97402 18.6571 8.78073 18.5984 8.61632 18.4885C8.45191 18.3786 8.32377 18.2225 8.2481 18.0398C8.17243 17.8571 8.15262 17.656 8.19119 17.4621C8.22976 17.2681 8.32497 17.09 8.46478 16.9501L13.414 12.0004L8.46474 7.05067C8.27722 6.86316 8.17187 6.60883 8.17188 6.34364C8.17188 6.07845 8.27722 5.82413 8.46474 5.63661C8.65226 5.44909 8.90659 5.34375 9.17177 5.34375C9.43696 5.34375 9.69129 5.4491 9.87881 5.63661L15.5351 11.2934C15.6279 11.3862 15.7016 11.4964 15.7519 11.6178C15.8021 11.7391 15.828 11.8691 15.828 12.0004C15.828 12.1317 15.8021 12.2618 15.7519 12.3831C15.7016 12.5044 15.6279 12.6146 15.5351 12.7074L9.87881 18.3642C9.78607 18.4572 9.67586 18.5309 9.55453 18.5812C9.43319 18.6315 9.30312 18.6573 9.17177 18.6571Z" fill="#6563FF"/>
</svg>
