<svg width="24" height="24" viewBox="0 0 24 24" fill="none" xmlns="http://www.w3.org/2000/svg">
<path d="M11 8H3C2.73478 8 2.48043 7.89464 2.29289 7.70711C2.10536 7.51957 2 7.26522 2 7C2 6.73478 2.10536 6.48043 2.29289 6.29289C2.48043 6.10536 2.73478 6 3 6H11C11.2652 6 11.5196 6.10536 11.7071 6.29289C11.8946 6.48043 12 6.73478 12 7C12 7.26522 11.8946 7.51957 11.7071 7.70711C11.5196 7.89464 11.2652 8 11 8ZM11 12H3C2.73478 12 2.48043 11.8946 2.29289 11.7071C2.10536 11.5196 2 11.2652 2 11C2 10.7348 2.10536 10.4804 2.29289 10.2929C2.48043 10.1054 2.73478 10 3 10H11C11.2652 10 11.5196 10.1054 11.7071 10.2929C11.8946 10.4804 12 10.7348 12 11C12 11.2652 11.8946 11.5196 11.7071 11.7071C11.5196 11.8946 11.2652 12 11 12Z" fill="#A2A1FF"/>
<path d="M21 4H15C14.4477 4 14 4.44772 14 5V11C14 11.5523 14.4477 12 15 12H21C21.5523 12 22 11.5523 22 11V5C22 4.44772 21.5523 4 21 4Z" fill="#6563FF"/>
<path d="M21 16H3C2.73478 16 2.48043 15.8946 2.29289 15.7071C2.10536 15.5196 2 15.2652 2 15C2 14.7348 2.10536 14.4804 2.29289 14.2929C2.48043 14.1054 2.73478 14 3 14H21C21.2652 14 21.5196 14.1054 21.7071 14.2929C21.8946 14.4804 22 14.7348 22 15C22 15.2652 21.8946 15.5196 21.7071 15.7071C21.5196 15.8946 21.2652 16 21 16ZM13 20H3C2.73478 20 2.48043 19.8946 2.29289 19.7071C2.10536 19.5196 2 19.2652 2 19C2 18.7348 2.10536 18.4804 2.29289 18.2929C2.48043 18.1054 2.73478 18 3 18H13C13.2652 18 13.5196 18.1054 13.7071 18.2929C13.8946 18.4804 14 18.7348 14 19C14 19.2652 13.8946 19.5196 13.7071 19.7071C13.5196 19.8946 13.2652 20 13 20Z" fill="#A2A1FF"/>
</svg>
