<svg width="24" height="24" viewBox="0 0 24 24" fill="none" xmlns="http://www.w3.org/2000/svg">
<path d="M16 17C15.8687 17.0001 15.7386 16.9743 15.6173 16.9241C15.4959 16.8738 15.3857 16.8 15.293 16.707L11.293 12.707C11.2001 12.6142 11.1264 12.5039 11.0762 12.3826C11.0259 12.2613 11 12.1313 11 12C11 11.8687 11.0259 11.7386 11.0762 11.6173C11.1264 11.496 11.2001 11.3858 11.293 11.2929L15.293 7.29294C15.4809 7.10738 15.7346 7.0037 15.9987 7.00453C16.2628 7.00537 16.5159 7.11066 16.7026 7.29741C16.8893 7.48415 16.9946 7.7372 16.9954 8.00129C16.9963 8.26539 16.8926 8.51909 16.707 8.707L13.4141 12L16.7071 15.293C16.8469 15.4329 16.9421 15.611 16.9806 15.805C17.0192 15.9989 16.9994 16.2 16.9237 16.3827C16.848 16.5654 16.7199 16.7215 16.5555 16.8314C16.3911 16.9413 16.1978 17 16 17ZM8 17C7.73478 17 7.48043 16.8946 7.29289 16.7071C7.10536 16.5196 7 16.2652 7 16V8C7 7.73478 7.10536 7.48043 7.29289 7.29289C7.48043 7.10536 7.73478 7 8 7C8.26522 7 8.51957 7.10536 8.70711 7.29289C8.89464 7.48043 9 7.73478 9 8V16C9 16.2652 8.89464 16.5196 8.70711 16.7071C8.51957 16.8946 8.26522 17 8 17Z" fill="#6563FF"/>
</svg>
