<svg width="24" height="24" viewBox="0 0 24 24" fill="none" xmlns="http://www.w3.org/2000/svg">
<path d="M17.5625 21.5601H6.43747C6.22622 21.56 6.0204 21.4931 5.84952 21.3689C5.67865 21.2447 5.5515 21.0696 5.48631 20.8686L2.04881 10.2886C1.98356 10.0879 1.98357 9.87163 2.04883 9.67092C2.1141 9.47021 2.24127 9.29534 2.41209 9.17138L11.4121 2.63232C11.5827 2.50763 11.7886 2.44043 12 2.44043C12.2113 2.44043 12.4172 2.50763 12.5879 2.63232L21.5879 9.17138C21.7587 9.29534 21.8859 9.47021 21.9511 9.67092C22.0164 9.87163 22.0164 10.0879 21.9511 10.2886L18.5136 20.8686C18.4485 21.0696 18.3213 21.2447 18.1504 21.3689C17.9795 21.4931 17.7737 21.5601 17.5625 21.5601Z" fill="#6563FF"/>
</svg>
