<svg width="24" height="24" viewBox="0 0 24 24" fill="none" xmlns="http://www.w3.org/2000/svg">
<path d="M2.9917 9.00038C2.86037 9.00034 2.73032 9.02618 2.60897 9.07643C2.48763 9.12667 2.37738 9.20033 2.28451 9.29319C2.19165 9.38606 2.11799 9.49631 2.06775 9.61765C2.01751 9.73899 1.99166 9.86904 1.9917 10.0004V14.0004C1.9917 14.2656 2.09706 14.5199 2.28459 14.7075C2.47213 14.895 2.72648 15.0004 2.9917 15.0004C3.25692 15.0004 3.51127 14.895 3.69881 14.7075C3.88634 14.5199 3.9917 14.2656 3.9917 14.0004V10.0004C3.99173 9.86904 3.96589 9.73899 3.91565 9.61765C3.86541 9.49631 3.79175 9.38606 3.69889 9.29319C3.60602 9.20033 3.49577 9.12667 3.37442 9.07643C3.25308 9.02618 3.12303 9.00034 2.9917 9.00038ZM20.9917 9.00038C20.8604 9.00034 20.7303 9.02618 20.609 9.07643C20.4876 9.12667 20.3774 9.20033 20.2845 9.29319C20.1916 9.38606 20.118 9.49631 20.0677 9.61765C20.0175 9.73899 19.9917 9.86904 19.9917 10.0004V14.0004C19.9917 14.2656 20.0971 14.5199 20.2846 14.7075C20.4721 14.895 20.7265 15.0004 20.9917 15.0004C21.2569 15.0004 21.5113 14.895 21.6988 14.7075C21.8863 14.5199 21.9917 14.2656 21.9917 14.0004V10.0004C21.9917 9.86904 21.9659 9.73899 21.9157 9.61765C21.8654 9.49631 21.7917 9.38606 21.6989 9.29319C21.606 9.20033 21.4958 9.12667 21.3744 9.07643C21.2531 9.02618 21.123 9.00034 20.9917 9.00038ZM16.8574 3.50038C16.9235 3.38667 16.9666 3.26103 16.9841 3.13065C17.0015 3.00028 16.9931 2.86774 16.9593 2.74063C16.9255 2.61351 16.8669 2.49433 16.7869 2.3899C16.7069 2.28547 16.6071 2.19785 16.4932 2.13206C16.3793 2.06628 16.2535 2.02361 16.1231 2.00652C15.9927 1.98943 15.8602 1.99825 15.7331 2.03246C15.6061 2.06668 15.4871 2.12562 15.3829 2.20591C15.2787 2.28621 15.1914 2.38627 15.126 2.50038L14.5118 3.56276C13.7233 3.19239 12.8629 3.00038 11.9917 3.00038C11.1205 3.00038 10.2601 3.19239 9.47156 3.56276L8.85742 2.50038C8.79197 2.38627 8.70465 2.28621 8.60046 2.20591C8.49627 2.12562 8.37726 2.06668 8.25025 2.03246C8.12324 1.99825 7.99073 1.98943 7.8603 2.00652C7.72988 2.02361 7.60411 2.06628 7.4902 2.13206C7.37629 2.19785 7.27649 2.28547 7.19651 2.3899C7.11653 2.49433 7.05794 2.61351 7.0241 2.74063C6.99027 2.86774 6.98185 3.00028 6.99933 3.13065C7.01681 3.26103 7.05985 3.38667 7.12598 3.50038L7.81848 4.69832C7.24069 5.25598 6.78116 5.92431 6.4673 6.66345C6.15344 7.40258 5.99169 8.19737 5.9917 9.00038V17.0004C5.99167 17.1317 6.01751 17.2618 6.06775 17.3831C6.11799 17.5044 6.19165 17.6147 6.28452 17.7076C6.37738 17.8004 6.48763 17.8741 6.60898 17.9243C6.73032 17.9746 6.86037 18.0004 6.9917 18.0004H8.9917V21.0004C8.9917 21.2656 9.09706 21.5199 9.28459 21.7075C9.47213 21.895 9.72648 22.0004 9.9917 22.0004C10.2569 22.0004 10.5113 21.895 10.6988 21.7075C10.8863 21.5199 10.9917 21.2656 10.9917 21.0004V18.0004H12.9917V21.0004C12.9917 21.2656 13.0971 21.5199 13.2846 21.7075C13.4721 21.895 13.7265 22.0004 13.9917 22.0004C14.2569 22.0004 14.5113 21.895 14.6988 21.7075C14.8863 21.5199 14.9917 21.2656 14.9917 21.0004V18.0004H16.9917C17.123 18.0004 17.2531 17.9746 17.3744 17.9243C17.4958 17.8741 17.606 17.8004 17.6989 17.7076C17.7917 17.6147 17.8654 17.5044 17.9156 17.3831C17.9659 17.2618 17.9917 17.1317 17.9917 17.0004V9.00038C17.9917 8.19737 17.83 7.40258 17.5161 6.66345C17.2022 5.92431 16.7427 5.25598 16.1649 4.69832L16.8574 3.50038ZM15.9917 16.0004H7.9917V11.0004H15.9917V16.0004ZM7.9917 9.00038C7.9917 7.93951 8.41313 6.9221 9.16327 6.17195C9.91342 5.4218 10.9308 5.00038 11.9917 5.00038C13.0526 5.00038 14.07 5.4218 14.8201 6.17195C15.5703 6.9221 15.9917 7.93951 15.9917 9.00038H7.9917Z" fill="black"/>
</svg>
