<svg width="24" height="24" viewBox="0 0 24 24" fill="none" xmlns="http://www.w3.org/2000/svg">
<path d="M14.94 5.19C15.3181 4.75428 15.6063 4.24817 15.7882 3.70074C15.9701 3.1533 16.0421 2.57533 16 2C14.8394 2.09369 13.762 2.63956 13 3.52C12.6351 3.94198 12.3586 4.43288 12.1868 4.96364C12.0151 5.49441 11.9516 6.05424 12 6.61C12.5662 6.61472 13.1258 6.4891 13.6356 6.24286C14.1454 5.99662 14.5918 5.63637 14.94 5.19ZM17.46 12.63C17.4667 11.8637 17.6686 11.1118 18.0465 10.4452C18.4244 9.77859 18.966 9.21926 19.62 8.82C19.2073 8.22524 18.6616 7.73483 18.0263 7.38767C17.391 7.04052 16.6835 6.84615 15.96 6.82C14.4 6.66 12.96 7.73 12.13 7.73C11.3 7.73 10.13 6.84 8.83003 6.86C7.98016 6.888 7.15205 7.13578 6.42648 7.57919C5.70091 8.02259 5.10264 8.64648 4.69003 9.39C2.93003 12.45 4.24003 17 6.00003 19.47C6.80003 20.68 7.80003 22.05 9.12003 22C10.44 21.95 10.87 21.18 12.4 21.18C13.93 21.18 14.4 22 15.7 21.97C17 21.94 17.92 20.73 18.76 19.52C19.3551 18.6415 19.8199 17.6816 20.14 16.67C19.3475 16.332 18.6714 15.7693 18.1951 15.0513C17.7188 14.3333 17.4633 13.4916 17.46 12.63Z" fill="black"/>
</svg>
