<svg width="24" height="24" viewBox="0 0 24 24" fill="none" xmlns="http://www.w3.org/2000/svg">
<path d="M12 22C17.5228 22 22 17.5228 22 12C22 6.47715 17.5228 2 12 2C6.47715 2 2 6.47715 2 12C2 17.5228 6.47715 22 12 22Z" fill="#C1C0FF"/>
<path d="M11.9999 2C10.0221 1.99998 8.08865 2.58647 6.44413 3.6853C4.7996 4.78413 3.51785 6.34594 2.76097 8.17324C2.00408 10.0005 1.80605 12.0112 2.19192 13.9511C2.5778 15.8909 3.53024 17.6728 4.92881 19.0713C6.32738 20.4698 8.10925 21.4222 10.0491 21.8081C11.989 22.1939 13.9997 21.9958 15.8269 21.2389C17.6542 20.4819 19.216 19.2002 20.3148 17.5556C21.4136 15.911 22 13.9776 21.9999 11.9997C21.9969 9.34854 20.9424 6.80678 19.0677 4.93211C17.1929 3.05744 14.6512 2.00296 11.9999 2ZM3.00922 11.9997C3.00823 10.7389 3.27349 9.49202 3.78766 8.34075L8.07648 20.0913C6.5573 19.3544 5.27631 18.2047 4.38016 16.7737C3.484 15.3426 3.00889 13.6882 3.00922 11.9997ZM11.9999 20.9912C11.1401 20.9912 10.2847 20.8679 9.45994 20.6249L12.1578 12.7862L14.9211 20.3575C14.9391 20.4006 14.9607 20.442 14.9856 20.4814C14.0265 20.8193 13.0169 20.9917 11.9999 20.9912ZM13.2389 7.78436C13.7802 7.75592 14.268 7.69897 14.268 7.69897C14.3652 7.68999 14.455 7.64313 14.5179 7.56852C14.5808 7.4939 14.6119 7.39752 14.6044 7.3002C14.5968 7.20288 14.5513 7.11243 14.4776 7.04839C14.404 6.98436 14.308 6.95188 14.2106 6.95797C14.2106 6.95797 12.7543 7.07229 11.8141 7.07229C10.9308 7.07229 9.44634 6.95797 9.44634 6.95797C9.34906 6.95218 9.25339 6.98482 9.17995 7.04888C9.1065 7.11295 9.06116 7.20329 9.05369 7.30046C9.04621 7.39763 9.0772 7.49384 9.13999 7.56838C9.20277 7.64292 9.29232 7.68982 9.38934 7.69897C9.38934 7.69897 9.84784 7.75592 10.3323 7.78436L11.7331 11.6224L9.76509 17.5232L6.49127 7.78436C7.0329 7.75592 7.5202 7.69897 7.5202 7.69897C7.61733 7.68989 7.70699 7.64298 7.76984 7.56837C7.83268 7.49376 7.86368 7.39744 7.85613 7.30018C7.84859 7.20292 7.80311 7.11252 7.7295 7.0485C7.6559 6.98448 7.56008 6.95197 7.46271 6.95797C7.46271 6.95797 6.00678 7.07229 5.06659 7.07229C4.89789 7.07229 4.69891 7.06813 4.48798 7.06136C5.20279 5.97349 6.14537 5.05386 7.25052 4.36608C8.35568 3.67829 9.59704 3.23876 10.8888 3.07787C12.1805 2.91699 13.4917 3.03859 14.7318 3.43428C15.9719 3.82996 17.1113 4.49028 18.0711 5.36957C18.0324 5.36719 17.9946 5.36236 17.9548 5.36236C17.5433 5.37462 17.1534 5.5494 16.8704 5.84844C16.5874 6.14749 16.4345 6.54645 16.4449 6.95801C16.5392 7.72891 16.8449 8.45872 17.3281 9.06671C17.8006 9.80838 18.0573 10.667 18.0693 11.5463C17.9759 12.5419 17.7457 13.52 17.3852 14.4528L16.4882 17.4491L13.2389 7.78436ZM16.5199 19.771L19.266 11.8313C19.7019 10.8128 19.9342 9.71878 19.9498 8.61102C19.9503 8.30183 19.9301 7.99295 19.8893 7.68646C21.0129 9.74269 21.2895 12.1563 20.6601 14.4134C20.0308 16.6705 18.5453 18.5927 16.5199 19.771Z" fill="#6563FF"/>
</svg>
