<svg width="24" height="24" viewBox="0 0 24 24" fill="none" xmlns="http://www.w3.org/2000/svg">
<path d="M15.0001 17.25C14.8687 17.2501 14.7387 17.2243 14.6173 17.174C14.496 17.1237 14.3858 17.05 14.2931 16.957L12.0001 14.664L9.70708 16.957C9.51899 17.1417 9.26557 17.2446 9.00195 17.2435C8.73834 17.2423 8.48586 17.137 8.29945 16.9506C8.11305 16.7642 8.0078 16.5117 8.0066 16.2481C8.00541 15.9845 8.10837 15.7311 8.29308 15.543L11.2931 12.543C11.3859 12.4501 11.4961 12.3764 11.6174 12.3261C11.7388 12.2759 11.8688 12.25 12.0001 12.25C12.1314 12.25 12.2615 12.2759 12.3828 12.3261C12.5041 12.3764 12.6143 12.4501 12.7071 12.543L15.7071 15.543C15.847 15.6828 15.9422 15.861 15.9807 16.055C16.0193 16.2489 15.9995 16.45 15.9238 16.6327C15.8481 16.8154 15.72 16.9715 15.5556 17.0814C15.3911 17.1913 15.1978 17.2499 15.0001 17.25ZM15.0001 11.75C14.8687 11.7501 14.7387 11.7243 14.6173 11.674C14.496 11.6237 14.3858 11.55 14.2931 11.457L12.0001 9.16403L9.70708 11.457C9.51899 11.6417 9.26557 11.7446 9.00195 11.7434C8.73834 11.7423 8.48586 11.637 8.29945 11.4506C8.11305 11.2642 8.0078 11.0117 8.0066 10.7481C8.00541 10.4845 8.10837 10.2311 8.29308 10.043L11.2931 7.04297C11.3859 6.95009 11.4961 6.87641 11.6174 6.82614C11.7388 6.77587 11.8688 6.75 12.0001 6.75C12.1314 6.75 12.2615 6.77587 12.3828 6.82614C12.5041 6.87641 12.6143 6.95009 12.7071 7.04297L15.7071 10.043C15.847 10.1828 15.9422 10.361 15.9807 10.555C16.0193 10.7489 15.9995 10.95 15.9238 11.1327C15.8481 11.3154 15.72 11.4715 15.5556 11.5814C15.3911 11.6913 15.1978 11.7499 15.0001 11.75Z" fill="#6563FF"/>
</svg>
