<svg width="24" height="24" viewBox="0 0 24 24" fill="none" xmlns="http://www.w3.org/2000/svg">
<path d="M20 20.0002H8C8.65438 19.1375 9.00587 18.083 9 17.0002V14.0002H15C15.2652 14.0002 15.5196 13.8948 15.7071 13.7073C15.8946 13.5197 16 13.2654 16 13.0002C16 12.735 15.8946 12.4806 15.7071 12.2931C15.5196 12.1055 15.2652 12.0002 15 12.0002H9V8.89018C8.99914 7.8125 9.3543 6.76473 10.0103 5.90971C10.6663 5.05468 11.5863 4.4403 12.6275 4.16206C13.6686 3.88381 14.7725 3.95729 15.7675 4.37107C16.7626 4.78485 17.5931 5.51575 18.13 6.45018C18.1962 6.56393 18.2841 6.66351 18.3889 6.7432C18.4936 6.82289 18.613 6.88112 18.7403 6.91457C18.8675 6.94801 19.0002 6.95601 19.1305 6.93809C19.2609 6.92018 19.3865 6.87671 19.5 6.81018C19.7287 6.67826 19.896 6.46123 19.9653 6.20644C20.0346 5.95166 20.0004 5.67979 19.87 5.45018C19.1097 4.13824 17.9385 3.11326 16.5373 2.53369C15.1362 1.95412 13.5831 1.85224 12.1182 2.24378C10.6534 2.63532 9.35824 3.4985 8.4331 4.69986C7.50796 5.90123 7.00431 7.37388 7 8.89018V12.0002H4C3.73478 12.0002 3.48043 12.1055 3.29289 12.2931C3.10536 12.4806 3 12.735 3 13.0002C3 13.2654 3.10536 13.5197 3.29289 13.7073C3.48043 13.8948 3.73478 14.0002 4 14.0002H7V17.0002C7 17.7958 6.68393 18.5589 6.12132 19.1215C5.55871 19.6841 4.79565 20.0002 4 20.0002C3.73478 20.0002 3.48043 20.1055 3.29289 20.2931C3.10536 20.4806 3 20.735 3 21.0002C3 21.2654 3.10536 21.5197 3.29289 21.7073C3.48043 21.8948 3.73478 22.0002 4 22.0002H20C20.2652 22.0002 20.5196 21.8948 20.7071 21.7073C20.8946 21.5197 21 21.2654 21 21.0002C21 20.735 20.8946 20.4806 20.7071 20.2931C20.5196 20.1055 20.2652 20.0002 20 20.0002Z" fill="black"/>
</svg>
