<svg width="24" height="24" viewBox="0 0 24 24" fill="none" xmlns="http://www.w3.org/2000/svg">
<path d="M20.07 6.35004H15V7.76004H20.09L20.07 6.35004ZM19 16.05C18.6154 16.3049 18.1612 16.4342 17.7 16.42C17.3947 16.4519 17.0862 16.4203 16.7937 16.3274C16.5011 16.2345 16.2309 16.0822 16 15.88C15.573 15.3959 15.3507 14.7649 15.38 14.12H22C22.0477 13.4486 21.9904 12.7738 21.83 12.12C21.6749 11.4981 21.4034 10.9111 21.03 10.39C20.6541 9.88464 20.1686 9.47095 19.61 9.18004C18.9884 8.87358 18.3029 8.71933 17.61 8.73004C16.9583 8.72526 16.3123 8.85107 15.71 9.10004C15.1585 9.33253 14.6588 9.67247 14.24 10.1C13.8224 10.5362 13.499 11.0536 13.29 11.62C13.0657 12.2316 12.9539 12.8787 12.96 13.53C12.9497 14.1906 13.0581 14.8477 13.28 15.47C13.4685 16.0336 13.7677 16.5538 14.16 17C14.5659 17.4382 15.0648 17.7799 15.62 18C16.2391 18.2359 16.8976 18.3513 17.56 18.34C18.4894 18.369 19.407 18.1257 20.2 17.64C21.0009 17.0709 21.5775 16.2396 21.83 15.29H19.62C19.5017 15.6042 19.284 15.871 19 16.05ZM15.57 11.93C15.6478 11.6807 15.777 11.4505 15.9493 11.2541C16.1215 11.0578 16.3329 10.8997 16.57 10.79C16.884 10.6487 17.2258 10.5803 17.57 10.59C17.8186 10.5688 18.0689 10.6016 18.3036 10.6862C18.5384 10.7708 18.7521 10.9051 18.93 11.08C19.2698 11.496 19.4878 11.9978 19.56 12.53H15.41C15.4262 12.3268 15.463 12.1258 15.52 11.93H15.57ZM10.28 11.45C10.789 11.2381 11.2312 10.8926 11.56 10.45C11.8622 9.98004 12.0124 9.42837 11.99 8.87004C12.0096 8.36088 11.9103 7.85415 11.7 7.39004C11.5233 6.98795 11.2397 6.64206 10.88 6.39004C10.4987 6.12801 10.0656 5.9507 9.61 5.87004C9.07082 5.75695 8.52087 5.7033 7.97 5.71004H2V18.29H8.1C8.65669 18.2904 9.21116 18.2199 9.75 18.08C10.2607 17.9479 10.7446 17.728 11.18 17.43C11.6017 17.1378 11.9452 16.7463 12.18 16.29C12.4399 15.7798 12.5672 15.2124 12.55 14.64C12.5689 13.9308 12.37 13.2328 11.98 12.64C11.5606 12.044 10.9385 11.621 10.23 11.45H10.28ZM4.77 7.86004H7.36C7.59795 7.85974 7.83548 7.87982 8.07 7.92004C8.28595 7.95204 8.49334 8.02683 8.68 8.14004C8.86035 8.24205 9.00648 8.39514 9.1 8.58004C9.21582 8.80175 9.27102 9.05013 9.26 9.30004C9.27863 9.51527 9.24572 9.73185 9.16399 9.93184C9.08225 10.1318 8.95405 10.3095 8.79 10.45C8.43212 10.6961 8.00388 10.8189 7.57 10.8H4.77V7.86004ZM9.61 15.3C9.50726 15.5038 9.35189 15.6765 9.16 15.8C8.9603 15.9242 8.74027 16.0123 8.51 16.06C8.25406 16.1173 7.99224 16.1442 7.73 16.14H4.73V12.69H7.73C8.24482 12.6675 8.75322 12.8112 9.18 13.1C9.37281 13.2731 9.52217 13.4891 9.61599 13.7306C9.7098 13.972 9.74543 14.2322 9.72 14.49C9.74704 14.7649 9.70936 15.0423 9.61 15.3Z" fill="black"/>
</svg>
