<svg width="24" height="24" viewBox="0 0 24 24" fill="none" xmlns="http://www.w3.org/2000/svg">
<path d="M21.71 9.29019L17.71 5.29019C17.6168 5.19695 17.5061 5.12299 17.3843 5.07253C17.2624 5.02207 17.1319 4.99609 17 4.99609C16.7337 4.99609 16.4783 5.10188 16.29 5.29019C16.1017 5.47849 15.9959 5.73388 15.9959 6.00019C15.9959 6.26649 16.1017 6.52188 16.29 6.71019L18.59 9.00019H7.00002C6.7348 9.00019 6.48045 9.10554 6.29291 9.29308C6.10537 9.48062 6.00002 9.73497 6.00002 10.0002C6.00002 10.2654 6.10537 10.5198 6.29291 10.7073C6.48045 10.8948 6.7348 11.0002 7.00002 11.0002H21C21.1974 10.9992 21.3902 10.9398 21.5539 10.8295C21.7176 10.7191 21.845 10.5628 21.92 10.3802C21.9966 10.1981 22.0175 9.99736 21.9801 9.80337C21.9428 9.60938 21.8488 9.43081 21.71 9.29019ZM17 13.0002H3.00002C2.80259 13.0012 2.60988 13.0606 2.44616 13.1709C2.28244 13.2812 2.15504 13.4376 2.08002 13.6202C2.00344 13.8023 1.98252 14.003 2.01989 14.197C2.05726 14.391 2.15126 14.5696 2.29002 14.7102L6.29002 18.7102C6.38298 18.8039 6.49358 18.8783 6.61544 18.9291C6.7373 18.9798 6.86801 19.006 7.00002 19.006C7.13203 19.006 7.26274 18.9798 7.38459 18.9291C7.50645 18.8783 7.61705 18.8039 7.71002 18.7102C7.80375 18.6172 7.87814 18.5066 7.92891 18.3848C7.97968 18.2629 8.00582 18.1322 8.00582 18.0002C8.00582 17.8682 7.97968 17.7375 7.92891 17.6156C7.87814 17.4937 7.80375 17.3831 7.71002 17.2902L5.41002 15.0002H17C17.2652 15.0002 17.5196 14.8948 17.7071 14.7073C17.8947 14.5198 18 14.2654 18 14.0002C18 13.735 17.8947 13.4806 17.7071 13.2931C17.5196 13.1055 17.2652 13.0002 17 13.0002Z" fill="black"/>
</svg>
