<svg width="24" height="24" viewBox="0 0 24 24" fill="none" xmlns="http://www.w3.org/2000/svg">
<path d="M11.2899 9.71019C11.3829 9.80391 11.4935 9.87831 11.6154 9.92908C11.7372 9.97985 11.8679 10.006 11.9999 10.006C12.132 10.006 12.2627 9.97985 12.3845 9.92908C12.5064 9.87831 12.617 9.80391 12.7099 9.71019L17.7099 4.71019C17.8982 4.52188 18.004 4.26649 18.004 4.00019C18.004 3.73388 17.8982 3.47849 17.7099 3.29019C17.5216 3.10188 17.2662 2.99609 16.9999 2.99609C16.7336 2.99609 16.4782 3.10188 16.2899 3.29019L11.9999 7.59019L7.70994 3.29019C7.52164 3.10188 7.26624 2.99609 6.99994 2.99609C6.73364 2.99609 6.47825 3.10188 6.28994 3.29019C6.10164 3.47849 5.99585 3.73388 5.99585 4.00019C5.99585 4.26649 6.10164 4.52188 6.28994 4.71019L11.2899 9.71019ZM12.7099 14.2902C12.617 14.1965 12.5064 14.1221 12.3845 14.0713C12.2627 14.0205 12.132 13.9944 11.9999 13.9944C11.8679 13.9944 11.7372 14.0205 11.6154 14.0713C11.4935 14.1221 11.3829 14.1965 11.2899 14.2902L6.28994 19.2902C6.10164 19.4785 5.99585 19.7339 5.99585 20.0002C5.99585 20.2665 6.10164 20.5219 6.28994 20.7102C6.47825 20.8985 6.73364 21.0043 6.99994 21.0043C7.26624 21.0043 7.52164 20.8985 7.70994 20.7102L11.9999 16.4102L16.2899 20.7102C16.3829 20.8039 16.4935 20.8783 16.6154 20.9291C16.7372 20.9798 16.8679 21.006 16.9999 21.006C17.132 21.006 17.2627 20.9798 17.3845 20.9291C17.5064 20.8783 17.617 20.8039 17.7099 20.7102C17.8037 20.6172 17.8781 20.5066 17.9288 20.3848C17.9796 20.2629 18.0057 20.1322 18.0057 20.0002C18.0057 19.8682 17.9796 19.7375 17.9288 19.6156C17.8781 19.4937 17.8037 19.3831 17.7099 19.2902L12.7099 14.2902Z" fill="black"/>
</svg>
