<svg width="24" height="24" viewBox="0 0 24 24" fill="none" xmlns="http://www.w3.org/2000/svg">
<path d="M14.2899 17.2899L12.9999 18.5899V12.9999C12.9999 12.7347 12.8945 12.4803 12.707 12.2928C12.5195 12.1053 12.2651 11.9999 11.9999 11.9999C11.7347 11.9999 11.4803 12.1053 11.2928 12.2928C11.1052 12.4803 10.9999 12.7347 10.9999 12.9999V18.5899L9.70989 17.2899C9.61665 17.1967 9.50596 17.1227 9.38414 17.0722C9.26232 17.0218 9.13175 16.9958 8.99989 16.9958C8.86803 16.9958 8.73746 17.0218 8.61564 17.0722C8.49382 17.1227 8.38313 17.1967 8.28989 17.2899C8.19665 17.3831 8.12269 17.4938 8.07223 17.6156C8.02177 17.7375 7.9958 17.868 7.9958 17.9999C7.9958 18.1318 8.02177 18.2623 8.07223 18.3841C8.12269 18.506 8.19665 18.6167 8.28989 18.7099L11.2899 21.7099C11.385 21.8009 11.4971 21.8723 11.6199 21.9199C11.7396 21.9728 11.869 22.0001 11.9999 22.0001C12.1308 22.0001 12.2602 21.9728 12.3799 21.9199C12.5026 21.8723 12.6148 21.8009 12.7099 21.7099L15.7099 18.7099C15.8982 18.5216 16.004 18.2662 16.004 17.9999C16.004 17.7336 15.8982 17.4782 15.7099 17.2899C15.5216 17.1016 15.2662 16.9958 14.9999 16.9958C14.7336 16.9958 14.4782 17.1016 14.2899 17.2899ZM18.4199 6.21989C17.8089 4.8159 16.7544 3.65097 15.418 2.90362C14.0815 2.15627 12.5369 1.86773 11.0209 2.0822C9.50477 2.29668 8.10082 3.00235 7.02415 4.09107C5.94747 5.17979 5.25748 6.59151 5.05989 8.10989C4.10648 8.33822 3.27011 8.90873 2.70963 9.71308C2.14914 10.5174 1.90357 11.4996 2.01955 12.4731C2.13553 13.4466 2.60498 14.3436 3.33876 14.9938C4.07253 15.6439 5.01952 16.002 5.99989 15.9999C6.26511 15.9999 6.51946 15.8945 6.707 15.707C6.89453 15.5195 6.99989 15.2651 6.99989 14.9999C6.99989 14.7347 6.89453 14.4803 6.707 14.2928C6.51946 14.1053 6.26511 13.9999 5.99989 13.9999C5.46946 13.9999 4.96075 13.7892 4.58568 13.4141C4.2106 13.039 3.99989 12.5303 3.99989 11.9999C3.99989 11.4695 4.2106 10.9608 4.58568 10.5857C4.96075 10.2106 5.46946 9.99989 5.99989 9.99989C6.26511 9.99989 6.51946 9.89454 6.707 9.707C6.89453 9.51946 6.99989 9.26511 6.99989 8.99989C7.00244 7.81717 7.42418 6.67365 8.19016 5.77248C8.95614 4.87131 10.0168 4.27085 11.1836 4.07777C12.3505 3.88469 13.548 4.1115 14.5635 4.7179C15.5789 5.32431 16.3465 6.27103 16.7299 7.38989C16.7871 7.56173 16.8898 7.71483 17.0272 7.83283C17.1646 7.95083 17.3314 8.02931 17.5099 8.0599C18.176 8.18577 18.7798 8.5335 19.2229 9.04643C19.6661 9.55936 19.9225 10.2073 19.9503 10.8845C19.9781 11.5618 19.7758 12.2286 19.3762 12.7761C18.9766 13.3237 18.4034 13.7198 17.7499 13.8999C17.6225 13.9327 17.5028 13.9903 17.3977 14.0694C17.2926 14.1485 17.2041 14.2475 17.1372 14.3608C17.0704 14.4741 17.0265 14.5994 17.0081 14.7297C16.9896 14.8599 16.9971 14.9925 17.0299 15.1199C17.0627 15.2473 17.1203 15.3669 17.1994 15.4721C17.2785 15.5772 17.3775 15.6657 17.4908 15.7326C17.6041 15.7994 17.7294 15.8433 17.8597 15.8617C17.9899 15.8801 18.1225 15.8727 18.2499 15.8399C19.3023 15.5618 20.2352 14.9479 20.9069 14.0914C21.5786 13.2348 21.9525 12.1825 21.9717 11.0942C21.991 10.0058 21.6545 8.94094 21.0135 8.06121C20.3724 7.18149 19.4618 6.53499 18.4199 6.21989Z" fill="black"/>
</svg>
