<svg width="24" height="24" viewBox="0 0 24 24" fill="none" xmlns="http://www.w3.org/2000/svg">
<path d="M14.9999 10.9999H9.99989C9.73467 10.9999 9.48032 11.1053 9.29278 11.2928C9.10525 11.4803 8.99989 11.7347 8.99989 11.9999V19.9999C8.99962 20.1816 9.04884 20.3599 9.14227 20.5157C9.23569 20.6715 9.3698 20.7989 9.53018 20.8842C9.69056 20.9696 9.87116 21.0096 10.0526 21C10.234 20.9904 10.4094 20.9316 10.5599 20.8299L12.4999 19.5299L14.3899 20.7899C14.5644 20.9254 14.7789 20.9992 14.9999 20.9999C15.1523 21.0005 15.3028 20.9663 15.4399 20.8999C15.6082 20.8174 15.7499 20.6893 15.8489 20.5302C15.948 20.3711 16.0003 20.1873 15.9999 19.9999V11.9999C15.9999 11.7347 15.8945 11.4803 15.707 11.2928C15.5195 11.1053 15.2651 10.9999 14.9999 10.9999ZM13.9999 18.1199L13.0599 17.4899C12.8945 17.3781 12.6995 17.3184 12.4999 17.3184C12.3003 17.3184 12.1053 17.3781 11.9399 17.4899L10.9999 18.1299V12.9999H13.9999V18.1199ZM18.4199 7.21989C17.8089 5.8159 16.7544 4.65097 15.418 3.90362C14.0815 3.15627 12.5369 2.86773 11.0209 3.0822C9.50477 3.29668 8.10082 4.00235 7.02415 5.09107C5.94747 6.17979 5.25748 7.59151 5.05989 9.10989C4.10648 9.33822 3.27011 9.90873 2.70963 10.7131C2.14914 11.5174 1.90357 12.4996 2.01955 13.4731C2.13553 14.4466 2.60498 15.3436 3.33876 15.9938C4.07253 16.6439 5.01952 17.002 5.99989 16.9999C6.26511 16.9999 6.51946 16.8945 6.707 16.707C6.89453 16.5195 6.99989 16.2651 6.99989 15.9999C6.99989 15.7347 6.89453 15.4803 6.707 15.2928C6.51946 15.1053 6.26511 14.9999 5.99989 14.9999C5.46946 14.9999 4.96075 14.7892 4.58568 14.4141C4.2106 14.039 3.99989 13.5303 3.99989 12.9999C3.99989 12.4695 4.2106 11.9608 4.58568 11.5857C4.96075 11.2106 5.46946 10.9999 5.99989 10.9999C6.26511 10.9999 6.51946 10.8945 6.707 10.707C6.89453 10.5195 6.99989 10.2651 6.99989 9.99989C7.00244 8.81717 7.42418 7.67365 8.19016 6.77248C8.95614 5.87131 10.0168 5.27085 11.1836 5.07777C12.3505 4.88469 13.548 5.1115 14.5635 5.7179C15.5789 6.32431 16.3465 7.27103 16.7299 8.38989C16.7871 8.56173 16.8898 8.71483 17.0272 8.83283C17.1646 8.95083 17.3314 9.02931 17.5099 9.0599C18.1112 9.16874 18.665 9.45863 19.0971 9.89078C19.5292 10.3229 19.819 10.8767 19.9277 11.4781C20.0364 12.0794 19.9589 12.6997 19.7056 13.2558C19.4522 13.8119 19.035 14.2774 18.5099 14.5899C18.2792 14.7225 18.1105 14.9413 18.0412 15.1983C17.9718 15.4552 18.0073 15.7292 18.1399 15.9599C18.2725 16.1906 18.4913 16.3592 18.7483 16.4286C19.0052 16.498 19.2792 16.4625 19.5099 16.3299C20.2681 15.8898 20.8973 15.2581 21.3343 14.4981C21.7714 13.7381 22.0009 12.8766 21.9999 11.9999C21.9969 10.924 21.6469 9.87783 21.0019 9.0167C20.357 8.15557 19.4515 7.52544 18.4199 7.21989Z" fill="black"/>
</svg>
