<svg width="24" height="24" viewBox="0 0 24 24" fill="none" xmlns="http://www.w3.org/2000/svg">
<path d="M11.2899 12.2899C11.1489 12.4298 11.0527 12.6085 11.0136 12.8032C10.9745 12.998 10.9944 13.1999 11.0705 13.3834C11.1467 13.5668 11.2758 13.7234 11.4413 13.8332C11.6068 13.943 11.8013 14.001 11.9999 13.9999H12.1899C12.2561 13.9906 12.3203 13.9703 12.3799 13.9399C12.4413 13.9199 12.4988 13.8895 12.5499 13.8499L12.6999 13.7299C12.7936 13.6369 12.868 13.5263 12.9188 13.4045C12.9696 13.2826 12.9957 13.1519 12.9957 13.0199C12.9957 12.8879 12.9696 12.7572 12.9188 12.6353C12.868 12.5135 12.7936 12.4029 12.6999 12.3099C12.5152 12.121 12.2632 12.0128 11.999 12.0091C11.7348 12.0053 11.4799 12.1063 11.2899 12.2899ZM11.9999 14.9999C11.7347 14.9999 11.4803 15.1053 11.2928 15.2928C11.1052 15.4803 10.9999 15.7347 10.9999 15.9999V18.9999C10.9999 19.2651 11.1052 19.5195 11.2928 19.707C11.4803 19.8945 11.7347 19.9999 11.9999 19.9999C12.2651 19.9999 12.5195 19.8945 12.707 19.707C12.8945 19.5195 12.9999 19.2651 12.9999 18.9999V15.9999C12.9999 15.7347 12.8945 15.4803 12.707 15.2928C12.5195 15.1053 12.2651 14.9999 11.9999 14.9999ZM18.4199 8.2199C17.8089 6.8159 16.7544 5.65097 15.418 4.90362C14.0815 4.15627 12.5369 3.86773 11.0209 4.0822C9.50477 4.29668 8.10082 5.00235 7.02415 6.09107C5.94747 7.17979 5.25748 8.59151 5.05989 10.1099C4.10648 10.3382 3.27011 10.9087 2.70963 11.7131C2.14914 12.5174 1.90357 13.4996 2.01955 14.4731C2.13553 15.4466 2.60498 16.3436 3.33876 16.9938C4.07253 17.6439 5.01952 18.002 5.99989 17.9999H7.99989C8.26511 17.9999 8.51946 17.8945 8.707 17.707C8.89453 17.5195 8.99989 17.2651 8.99989 16.9999C8.99989 16.7347 8.89453 16.4803 8.707 16.2928C8.51946 16.1053 8.26511 15.9999 7.99989 15.9999H5.99989C5.46946 15.9999 4.96075 15.7892 4.58568 15.4141C4.2106 15.039 3.99989 14.5303 3.99989 13.9999C3.99989 13.4695 4.2106 12.9608 4.58568 12.5857C4.96075 12.2106 5.46946 11.9999 5.99989 11.9999C6.26511 11.9999 6.51946 11.8945 6.707 11.707C6.89453 11.5195 6.99989 11.2651 6.99989 10.9999C7.00244 9.81717 7.42418 8.67365 8.19016 7.77248C8.95614 6.87131 10.0168 6.27085 11.1836 6.07777C12.3505 5.88469 13.548 6.1115 14.5635 6.7179C15.5789 7.32431 16.3465 8.27104 16.7299 9.3899C16.7871 9.56174 16.8898 9.71483 17.0272 9.83283C17.1646 9.95083 17.3314 10.0293 17.5099 10.0599C18.2041 10.1796 18.8339 10.5398 19.2892 11.0774C19.7445 11.6149 19.9961 12.2955 19.9999 12.9999C19.9999 13.7955 19.6838 14.5586 19.1212 15.1212C18.5586 15.6838 17.7955 15.9999 16.9999 15.9999H15.9999C15.7347 15.9999 15.4803 16.1053 15.2928 16.2928C15.1052 16.4803 14.9999 16.7347 14.9999 16.9999C14.9999 17.2651 15.1052 17.5195 15.2928 17.707C15.4803 17.8945 15.7347 17.9999 15.9999 17.9999H16.9999C18.1935 17.9889 19.3438 17.5512 20.2428 16.766C21.1419 15.9808 21.7304 14.8998 21.9019 13.7185C22.0734 12.5373 21.8166 11.3336 21.178 10.3251C20.5394 9.31665 19.5611 8.56991 18.4199 8.2199Z" fill="black"/>
</svg>
