<svg width="24" height="24" viewBox="0 0 24 24" fill="none" xmlns="http://www.w3.org/2000/svg">
<path d="M13 16.0001H7.00001C6.73479 16.0001 6.48044 16.1054 6.2929 16.293C6.10537 16.4805 6.00001 16.7349 6.00001 17.0001C6.00001 17.2653 6.10537 17.5196 6.2929 17.7072C6.48044 17.8947 6.73479 18.0001 7.00001 18.0001H13C13.2652 18.0001 13.5196 17.8947 13.7071 17.7072C13.8947 17.5196 14 17.2653 14 17.0001C14 16.7349 13.8947 16.4805 13.7071 16.293C13.5196 16.1054 13.2652 16.0001 13 16.0001ZM9.00001 10.0001H11C11.2652 10.0001 11.5196 9.89471 11.7071 9.70717C11.8947 9.51964 12 9.26528 12 9.00007C12 8.73485 11.8947 8.4805 11.7071 8.29296C11.5196 8.10543 11.2652 8.00007 11 8.00007H9.00001C8.73479 8.00007 8.48044 8.10543 8.2929 8.29296C8.10537 8.4805 8.00001 8.73485 8.00001 9.00007C8.00001 9.26528 8.10537 9.51964 8.2929 9.70717C8.48044 9.89471 8.73479 10.0001 9.00001 10.0001ZM21 12.0001H18V3.00007C18.0007 2.82386 17.9548 2.65059 17.867 2.49781C17.7792 2.34504 17.6526 2.21817 17.5 2.13007C17.348 2.0423 17.1755 1.99609 17 1.99609C16.8245 1.99609 16.652 2.0423 16.5 2.13007L13.5 3.85007L10.5 2.13007C10.348 2.0423 10.1755 1.99609 10 1.99609C9.82447 1.99609 9.65203 2.0423 9.50001 2.13007L6.50001 3.85007L3.50001 2.13007C3.34799 2.0423 3.17554 1.99609 3.00001 1.99609C2.82447 1.99609 2.65203 2.0423 2.50001 2.13007C2.3474 2.21817 2.22079 2.34504 2.13299 2.49781C2.04518 2.65059 1.99931 2.82386 2.00001 3.00007V19.0001C2.00001 19.7957 2.31608 20.5588 2.87869 21.1214C3.4413 21.684 4.20436 22.0001 5.00001 22.0001H19C19.7957 22.0001 20.5587 21.684 21.1213 21.1214C21.6839 20.5588 22 19.7957 22 19.0001V13.0001C22 12.7349 21.8947 12.4805 21.7071 12.293C21.5196 12.1054 21.2652 12.0001 21 12.0001ZM5.00001 20.0001C4.73479 20.0001 4.48044 19.8947 4.2929 19.7072C4.10536 19.5196 4.00001 19.2653 4.00001 19.0001V4.73007L6.00001 5.87007C6.15435 5.95068 6.32589 5.99278 6.50001 5.99278C6.67413 5.99278 6.84567 5.95068 7.00001 5.87007L10 4.15007L13 5.87007C13.1543 5.95068 13.3259 5.99278 13.5 5.99278C13.6741 5.99278 13.8457 5.95068 14 5.87007L16 4.73007V19.0001C16.0027 19.3412 16.0636 19.6794 16.18 20.0001H5.00001ZM20 19.0001C20 19.2653 19.8947 19.5196 19.7071 19.7072C19.5196 19.8947 19.2652 20.0001 19 20.0001C18.7348 20.0001 18.4804 19.8947 18.2929 19.7072C18.1054 19.5196 18 19.2653 18 19.0001V14.0001H20V19.0001ZM13 12.0001H7.00001C6.73479 12.0001 6.48044 12.1054 6.2929 12.293C6.10537 12.4805 6.00001 12.7349 6.00001 13.0001C6.00001 13.2653 6.10537 13.5196 6.2929 13.7072C6.48044 13.8947 6.73479 14.0001 7.00001 14.0001H13C13.2652 14.0001 13.5196 13.8947 13.7071 13.7072C13.8947 13.5196 14 13.2653 14 13.0001C14 12.7349 13.8947 12.4805 13.7071 12.293C13.5196 12.1054 13.2652 12.0001 13 12.0001Z" fill="black"/>
</svg>
