<svg width="24" height="24" viewBox="0 0 24 24" fill="none" xmlns="http://www.w3.org/2000/svg">
<path d="M15 12.4999C14.8065 12.5012 14.6176 12.5585 14.4561 12.665C14.2946 12.7715 14.1674 12.9226 14.09 13.0999C13.4592 12.7107 12.7328 12.5044 11.9916 12.504C11.2504 12.5037 10.5237 12.7092 9.89255 13.0978C9.2614 13.4864 8.75062 14.0426 8.41719 14.7046C8.08376 15.3665 7.9408 16.1081 8.00426 16.8465C8.06772 17.585 8.33511 18.2913 8.77658 18.8866C9.21806 19.482 9.81626 19.9429 10.5045 20.2181C11.1927 20.4933 11.9438 20.5719 12.674 20.445C13.4043 20.3182 14.0849 19.991 14.64 19.4999C14.7451 19.4152 14.832 19.3101 14.8955 19.191C14.9589 19.0718 14.9975 18.941 15.0091 18.8065C15.0206 18.672 15.0048 18.5366 14.9626 18.4084C14.9204 18.2802 14.8526 18.1618 14.7634 18.0605C14.6743 17.9591 14.5655 17.8769 14.4437 17.8187C14.3219 17.7605 14.1895 17.7276 14.0547 17.722C13.9198 17.7163 13.7852 17.738 13.6589 17.7858C13.5326 17.8336 13.4174 17.9064 13.32 17.9999C12.9554 18.3215 12.4862 18.4992 12 18.4999C11.6962 18.495 11.3975 18.4209 11.1266 18.2834C10.8557 18.1458 10.6197 17.9482 10.4365 17.7058C10.2533 17.4634 10.1278 17.1824 10.0695 16.8842C10.0111 16.586 10.0215 16.2784 10.0998 15.9848C10.1781 15.6912 10.3222 15.4193 10.5213 15.1898C10.7204 14.9602 10.9691 14.7791 11.2487 14.66C11.5283 14.541 11.8313 14.4872 12.1347 14.5028C12.4382 14.5184 12.7341 14.6029 13 14.7499H12.78C12.5148 14.7499 12.2604 14.8553 12.0729 15.0428C11.8854 15.2303 11.78 15.4847 11.78 15.7499C11.78 16.0151 11.8854 16.2695 12.0729 16.457C12.2604 16.6445 12.5148 16.7499 12.78 16.7499H15C15.2652 16.7499 15.5196 16.6445 15.7071 16.457C15.8947 16.2695 16 16.0151 16 15.7499V13.4999C16 13.2347 15.8947 12.9803 15.7071 12.7928C15.5196 12.6053 15.2652 12.4999 15 12.4999ZM18.42 7.71989C17.809 6.3159 16.7545 5.15097 15.4181 4.40362C14.0817 3.65627 12.5371 3.36773 11.021 3.5822C9.50489 3.79668 8.10094 4.50235 7.02427 5.59107C5.9476 6.67979 5.2576 8.09151 5.06001 9.60989C4.22223 9.81395 3.47281 10.2833 2.92346 10.9479C2.37411 11.6125 2.05423 12.4369 2.01151 13.2981C1.96878 14.1593 2.2055 15.0113 2.68638 15.727C3.16725 16.4427 3.86654 16.9839 4.68001 17.2699C4.78372 17.3018 4.8915 17.3187 5.00001 17.3199C5.26523 17.3623 5.53644 17.2977 5.75398 17.1401C5.97152 16.9826 6.11758 16.7451 6.16001 16.4799C6.20245 16.2147 6.13778 15.9435 5.98025 15.7259C5.82272 15.5084 5.58523 15.3623 5.32001 15.3199C4.94292 15.1838 4.61544 14.9375 4.38007 14.6129C4.14469 14.2884 4.01228 13.9006 4.00001 13.4999C4.00001 12.9695 4.21072 12.4608 4.5858 12.0857C4.96087 11.7106 5.46958 11.4999 6.00001 11.4999C6.26523 11.4999 6.51958 11.3945 6.70712 11.207C6.89465 11.0195 7.00001 10.7651 7.00001 10.4999C7.00257 9.31717 7.4243 8.17365 8.19028 7.27248C8.95626 6.37131 10.0169 5.77085 11.1838 5.57777C12.3506 5.38469 13.5481 5.6115 14.5636 6.2179C15.579 6.82431 16.3466 7.77103 16.73 8.88989C16.7872 9.06173 16.8899 9.21483 17.0273 9.33283C17.1647 9.45083 17.3315 9.52931 17.51 9.5599C18.1113 9.66874 18.6651 9.95863 19.0972 10.3908C19.5293 10.8229 19.8191 11.3767 19.9278 11.9781C20.0366 12.5794 19.9591 13.1997 19.7057 13.7558C19.4523 14.3119 19.0352 14.7774 18.51 15.0899C18.2793 15.2225 18.1107 15.4413 18.0413 15.6983C17.9719 15.9552 18.0074 16.2292 18.14 16.4599C18.2726 16.6906 18.4915 16.8592 18.7484 16.9286C19.0053 16.998 19.2793 16.9625 19.51 16.8299C20.2682 16.3898 20.8974 15.7581 21.3344 14.9981C21.7715 14.2381 22.001 13.3766 22 12.4999C21.997 11.424 21.647 10.3778 21.002 9.5167C20.3571 8.65557 19.4516 8.02544 18.42 7.71989Z" fill="black"/>
</svg>
