<svg width="24" height="24" viewBox="0 0 24 24" fill="none" xmlns="http://www.w3.org/2000/svg">
<path d="M18.4199 8.2199C17.8089 6.8159 16.7544 5.65097 15.418 4.90362C14.0815 4.15627 12.5369 3.86773 11.0209 4.0822C9.50477 4.29668 8.10082 5.00235 7.02415 6.09107C5.94747 7.17979 5.25748 8.59151 5.05989 10.1099C4.10648 10.3382 3.27011 10.9087 2.70963 11.7131C2.14914 12.5174 1.90357 13.4996 2.01955 14.4731C2.13553 15.4466 2.60498 16.3436 3.33876 16.9938C4.07253 17.6439 5.01952 18.002 5.99989 17.9999H7.99989C8.26511 17.9999 8.51946 17.8945 8.707 17.707C8.89453 17.5195 8.99989 17.2651 8.99989 16.9999C8.99989 16.7347 8.89453 16.4803 8.707 16.2928C8.51946 16.1053 8.26511 15.9999 7.99989 15.9999H5.99989C5.46946 15.9999 4.96075 15.7892 4.58568 15.4141C4.2106 15.039 3.99989 14.5303 3.99989 13.9999C3.99989 13.4695 4.2106 12.9608 4.58568 12.5857C4.96075 12.2106 5.46946 11.9999 5.99989 11.9999C6.26511 11.9999 6.51946 11.8945 6.707 11.707C6.89453 11.5195 6.99989 11.2651 6.99989 10.9999C7.00244 9.81717 7.42418 8.67365 8.19016 7.77248C8.95614 6.87131 10.0168 6.27085 11.1836 6.07777C12.3505 5.88469 13.548 6.1115 14.5635 6.7179C15.5789 7.32431 16.3465 8.27104 16.7299 9.3899C16.7871 9.56174 16.8898 9.71483 17.0272 9.83283C17.1646 9.95083 17.3314 10.0293 17.5099 10.0599C18.2041 10.1796 18.8339 10.5398 19.2892 11.0774C19.7445 11.6149 19.9961 12.2955 19.9999 12.9999C19.9999 13.7955 19.6838 14.5586 19.1212 15.1212C18.5586 15.6838 17.7955 15.9999 16.9999 15.9999C16.7347 15.9999 16.4803 16.1053 16.2928 16.2928C16.1052 16.4803 15.9999 16.7347 15.9999 16.9999C15.9999 17.2651 16.1052 17.5195 16.2928 17.707C16.4803 17.8945 16.7347 17.9999 16.9999 17.9999C18.1935 17.9889 19.3438 17.5512 20.2428 16.766C21.1419 15.9808 21.7304 14.8998 21.9019 13.7185C22.0734 12.5373 21.8166 11.3336 21.178 10.3251C20.5394 9.31665 19.5611 8.56991 18.4199 8.2199ZM12.9199 18.6199C12.8999 18.5585 12.8695 18.5009 12.8299 18.4499L12.7099 18.2899C12.6127 18.2016 12.5011 18.1305 12.3799 18.0799C12.1978 18.0033 11.9971 17.9824 11.8031 18.0198C11.6091 18.0571 11.4305 18.1511 11.2899 18.2899L11.1699 18.4499C11.1303 18.5009 11.0999 18.5585 11.0799 18.6199C11.0511 18.6766 11.0308 18.7372 11.0199 18.7999C11.0154 18.8665 11.0154 18.9333 11.0199 18.9999C11.015 19.0631 11.015 19.1267 11.0199 19.1899C11.0292 19.2561 11.0494 19.3203 11.0799 19.3799C11.0999 19.4413 11.1303 19.4988 11.1699 19.5499L11.2899 19.7099C11.4815 19.8926 11.7351 19.9962 11.9999 19.9999C12.1306 19.9983 12.2597 19.9711 12.3799 19.9199C12.5011 19.8693 12.6127 19.7982 12.7099 19.7099L12.8299 19.5499C12.8695 19.4988 12.8999 19.4413 12.9199 19.3799C12.9503 19.3203 12.9706 19.2561 12.9799 19.1899C12.9915 19.1272 12.9982 19.0637 12.9999 18.9999C13.0043 18.9333 13.0043 18.8665 12.9999 18.7999C12.9827 18.7361 12.9557 18.6754 12.9199 18.6199ZM11.9999 10.9999C11.473 10.9996 10.9552 11.138 10.4988 11.4013C10.0424 11.6647 9.66336 12.0436 9.39989 12.4999C9.33377 12.614 9.29088 12.7401 9.2737 12.8709C9.25652 13.0017 9.26538 13.1346 9.29977 13.2619C9.33416 13.3892 9.3934 13.5085 9.47409 13.6129C9.55477 13.7172 9.6553 13.8046 9.76989 13.8699C9.99951 14.0003 10.2714 14.0345 10.5262 13.9652C10.7809 13.8959 10.998 13.7286 11.1299 13.4999C11.218 13.3473 11.3449 13.2207 11.4976 13.1329C11.6504 13.0451 11.8237 12.9992 11.9999 12.9999C12.2651 12.9999 12.5195 13.1053 12.707 13.2928C12.8945 13.4803 12.9999 13.7347 12.9999 13.9999C12.9999 14.2651 12.8945 14.5195 12.707 14.707C12.5195 14.8945 12.2651 14.9999 11.9999 14.9999C11.7347 14.9999 11.4803 15.1053 11.2928 15.2928C11.1052 15.4803 10.9999 15.7347 10.9999 15.9999C10.9999 16.2651 11.1052 16.5195 11.2928 16.707C11.4803 16.8945 11.7347 16.9999 11.9999 16.9999C12.7955 16.9999 13.5586 16.6838 14.1212 16.1212C14.6838 15.5586 14.9999 14.7955 14.9999 13.9999C14.9999 13.2042 14.6838 12.4412 14.1212 11.8786C13.5586 11.316 12.7955 10.9999 11.9999 10.9999Z" fill="black"/>
</svg>
