<svg width="24" height="24" viewBox="0 0 24 24" fill="none" xmlns="http://www.w3.org/2000/svg">
<path d="M1.04 17.5198C1.10667 17.4132 1.21333 17.4065 1.36 17.4998C4.66103 19.4246 8.41891 20.4262 12.24 20.3998C14.8878 20.3934 17.5118 19.8984 19.98 18.9398C20.0467 18.9132 20.1433 18.8732 20.27 18.8198C20.3967 18.7665 20.4867 18.7265 20.54 18.6998C20.619 18.6567 20.7114 18.6452 20.7986 18.6674C20.8858 18.6897 20.9613 18.7441 21.01 18.8198C21.1233 18.9798 21.0867 19.1265 20.9 19.2598C20.66 19.4332 20.3533 19.6332 19.98 19.8598C18.7795 20.5621 17.4871 21.0939 16.14 21.4398C14.79 21.8047 13.3984 21.9929 12 21.9998C9.98223 22.0114 7.98045 21.6416 6.1 20.9098C4.26791 20.1963 2.58056 19.1561 1.12 17.8398C1.08647 17.8174 1.05831 17.7879 1.03757 17.7533C1.01682 17.7187 1.00399 17.68 1 17.6398C1.001 17.5967 1.01494 17.5549 1.04 17.5198ZM7.06 11.8198C7.03602 10.9816 7.27369 10.1568 7.74 9.45983C8.20442 8.79756 8.85033 8.28361 9.6 7.97983C10.4524 7.63956 11.3474 7.4175 12.26 7.31983C12.62 7.27983 13.2067 7.2265 14.02 7.15983V6.81983C14.0705 6.23216 13.9743 5.64114 13.74 5.09983C13.5887 4.89635 13.3882 4.73457 13.1574 4.62964C12.9265 4.5247 12.6728 4.48004 12.42 4.49983H12.26C11.848 4.52944 11.4527 4.67505 11.12 4.91983C10.7967 5.16496 10.5758 5.52127 10.5 5.91983C10.4921 6.02947 10.4488 6.13359 10.3767 6.21653C10.3046 6.29948 10.2075 6.35679 10.1 6.37983L7.8 6.09983C7.57333 6.0465 7.46 5.9265 7.46 5.73983C7.461 5.69253 7.46772 5.64553 7.48 5.59983C7.55744 5.06721 7.74616 4.55687 8.03389 4.10201C8.32162 3.64716 8.70191 3.25799 9.15 2.95983C10.0841 2.37157 11.1569 2.04041 12.26 1.99983H12.76C14.0541 1.92206 15.3286 2.3445 16.32 3.17983C16.4538 3.31377 16.5775 3.45751 16.69 3.60983C16.7886 3.74066 16.8788 3.8776 16.96 4.01983C17.0426 4.18452 17.1031 4.35935 17.14 4.53983C17.1933 4.7665 17.2333 4.92317 17.26 5.00983C17.2984 5.19407 17.3185 5.38165 17.32 5.56983C17.3333 5.8565 17.34 6.0265 17.34 6.07983V10.9198C17.3362 11.2427 17.3869 11.5639 17.49 11.8698C17.5575 12.0889 17.6551 12.2976 17.78 12.4898C17.8733 12.6165 18.0267 12.8198 18.24 13.0998C18.3102 13.1926 18.3519 13.3038 18.36 13.4198C18.3581 13.476 18.3425 13.5308 18.3146 13.5796C18.2867 13.6284 18.2474 13.6697 18.2 13.6998C17.0933 14.6598 16.4933 15.1798 16.4 15.2598C16.3164 15.3193 16.218 15.3545 16.1156 15.3615C16.0133 15.3686 15.911 15.3472 15.82 15.2998C15.6333 15.1398 15.47 14.9865 15.33 14.8398C15.19 14.6932 15.09 14.5865 15.03 14.5198C14.9263 14.3952 14.8295 14.265 14.74 14.1298C14.6067 13.9365 14.5133 13.8065 14.46 13.7398C13.8814 14.4402 13.1198 14.9664 12.26 15.2598C11.7122 15.405 11.1466 15.4723 10.58 15.4598C10.1164 15.4768 9.65405 15.4016 9.21974 15.2385C8.78544 15.0754 8.38784 14.8278 8.05 14.5098C7.70721 14.1548 7.44214 13.7322 7.27169 13.2691C7.10124 12.806 7.02915 12.3124 7.06 11.8198ZM10.5 11.4198C10.4773 11.8696 10.6156 12.3127 10.89 12.6698C11.0169 12.8239 11.1777 12.9464 11.3599 13.028C11.542 13.1095 11.7406 13.1478 11.94 13.1398C11.9971 13.1379 12.054 13.1312 12.11 13.1198C12.1594 13.1095 12.2096 13.1028 12.26 13.0998C12.5415 13.0236 12.8033 12.8877 13.0276 12.7014C13.2519 12.515 13.4335 12.2826 13.56 12.0198C13.7091 11.7604 13.8202 11.4809 13.89 11.1898C13.9536 10.951 13.9938 10.7065 14.01 10.4598C14.0167 10.2732 14.02 9.9665 14.02 9.53983V9.03983C13.429 9.02157 12.838 9.07529 12.26 9.19983C11.7468 9.29256 11.2851 9.56912 10.9611 9.97775C10.6372 10.3864 10.4732 10.8991 10.5 11.4198ZM18.9 17.8598C18.9312 17.8004 18.9717 17.7464 19.02 17.6998C19.3115 17.493 19.6361 17.3374 19.98 17.2398C20.4633 17.11 20.9599 17.0361 21.46 17.0198C21.5869 17.0062 21.7152 17.0129 21.84 17.0398C22.44 17.0932 22.8 17.1932 22.92 17.3398C22.9806 17.4497 23.0084 17.5746 23 17.6998V17.8398C22.9775 18.4087 22.8486 18.9684 22.62 19.4898C22.3975 20.079 22.0334 20.6045 21.56 21.0198C21.5106 21.0659 21.4473 21.094 21.38 21.0998C21.3521 21.0995 21.3247 21.0927 21.3 21.0798C21.22 21.0398 21.2 20.9665 21.24 20.8598C21.6196 20.1 21.8697 19.2821 21.98 18.4398C21.9893 18.3273 21.9612 18.2148 21.9 18.1198C21.7667 17.9598 21.3933 17.8798 20.78 17.8798C20.5533 17.8798 20.2867 17.8932 19.98 17.9198C19.6467 17.9598 19.34 17.9998 19.06 18.0398C19.0036 18.0466 18.9466 18.0323 18.9 17.9998C18.888 17.9908 18.8794 17.978 18.8758 17.9634C18.8721 17.9488 18.8736 17.9334 18.88 17.9198C18.8824 17.8987 18.8892 17.8782 18.9 17.8598Z" fill="black"/>
</svg>
